{
    "asset" : {
        "generator" : "Khronos glTF Blender I/O v1.6.16",
        "version" : "2.0"
    },
    "scene" : 0,
    "scenes" : [
        {
            "name" : "Scene",
            "nodes" : [
                0,
                1,
                2
            ]
        }
    ],
    "nodes" : [
        {
            "mesh" : 0,
            "name" : "building27"
        },
        {
            "mesh" : 1,
            "name" : "building27_cell",
            "translation" : [
                0,
                12.28564739227295,
                0
            ]
        },
        {
            "mesh" : 2,
            "name" : "building27_cell.001",
            "translation" : [
                5.45009970664978e-06,
                3.509521245956421,
                0
            ]
        }
    ],
    "materials" : [
        {
            "doubleSided" : true,
            "name" : "Material.025",
            "pbrMetallicRoughness" : {
                "baseColorTexture" : {
                    "index" : 0
                },
                "metallicFactor" : 0,
                "roughnessFactor" : 0.5
            }
        },
        {
            "doubleSided" : true,
            "name" : "Material.093",
            "pbrMetallicRoughness" : {
                "baseColorTexture" : {
                    "index" : 1
                },
                "metallicFactor" : 0,
                "roughnessFactor" : 0.5
            }
        }
    ],
    "meshes" : [
        {
            "name" : "building_031_mesh",
            "primitives" : [
                {
                    "attributes" : {
                        "POSITION" : 0,
                        "NORMAL" : 1,
                        "TEXCOORD_0" : 2
                    },
                    "indices" : 3,
                    "material" : 0
                },
                {
                    "attributes" : {
                        "POSITION" : 4,
                        "NORMAL" : 5,
                        "TEXCOORD_0" : 6
                    },
                    "indices" : 7,
                    "material" : 1
                }
            ]
        },
        {
            "name" : "building27_cell.002",
            "primitives" : [
                {
                    "attributes" : {
                        "POSITION" : 8,
                        "NORMAL" : 9,
                        "TEXCOORD_0" : 10
                    },
                    "indices" : 11,
                    "material" : 0
                },
                {
                    "attributes" : {
                        "POSITION" : 12,
                        "NORMAL" : 13,
                        "TEXCOORD_0" : 14
                    },
                    "indices" : 15,
                    "material" : 1
                }
            ]
        },
        {
            "name" : "building27_cell.003",
            "primitives" : [
                {
                    "attributes" : {
                        "POSITION" : 16,
                        "NORMAL" : 17,
                        "TEXCOORD_0" : 18
                    },
                    "indices" : 19,
                    "material" : 0
                }
            ]
        }
    ],
    "textures" : [
        {
            "sampler" : 0,
            "source" : 0
        },
        {
            "sampler" : 0,
            "source" : 1
        }
    ],
    "images" : [
        {
            "bufferView" : 4,
            "mimeType" : "image/jpeg",
            "name" : "images_15"
        },
        {
            "bufferView" : 9,
            "mimeType" : "image/jpeg",
            "name" : "roof3"
        }
    ],
    "accessors" : [
        {
            "bufferView" : 0,
            "componentType" : 5126,
            "count" : 4576,
            "max" : [
                0.5625039339065552,
                17.550121307373047,
                0.5625039339065552
            ],
            "min" : [
                -0.5625039339065552,
                0,
                -0.5625039339065552
            ],
            "type" : "VEC3"
        },
        {
            "bufferView" : 1,
            "componentType" : 5126,
            "count" : 4576,
            "type" : "VEC3"
        },
        {
            "bufferView" : 2,
            "componentType" : 5126,
            "count" : 4576,
            "type" : "VEC2"
        },
        {
            "bufferView" : 3,
            "componentType" : 5123,
            "count" : 5400,
            "type" : "SCALAR"
        },
        {
            "bufferView" : 5,
            "componentType" : 5126,
            "count" : 147,
            "max" : [
                0.5625039339065552,
                17.550121307373047,
                0.5625039339065552
            ],
            "min" : [
                -0.5625039339065552,
                17.550121307373047,
                -0.5625039339065552
            ],
            "type" : "VEC3"
        },
        {
            "bufferView" : 6,
            "componentType" : 5126,
            "count" : 147,
            "type" : "VEC3"
        },
        {
            "bufferView" : 7,
            "componentType" : 5126,
            "count" : 147,
            "type" : "VEC2"
        },
        {
            "bufferView" : 8,
            "componentType" : 5123,
            "count" : 174,
            "type" : "SCALAR"
        },
        {
            "bufferView" : 10,
            "componentType" : 5126,
            "count" : 300,
            "max" : [
                0.5625048279762268,
                5.264473915100098,
                0.5625020265579224
            ],
            "min" : [
                -0.5625030994415283,
                -5.282587051391602,
                -0.562505841255188
            ],
            "type" : "VEC3"
        },
        {
            "bufferView" : 11,
            "componentType" : 5126,
            "count" : 300,
            "type" : "VEC3"
        },
        {
            "bufferView" : 12,
            "componentType" : 5126,
            "count" : 300,
            "type" : "VEC2"
        },
        {
            "bufferView" : 13,
            "componentType" : 5123,
            "count" : 534,
            "type" : "SCALAR"
        },
        {
            "bufferView" : 14,
            "componentType" : 5126,
            "count" : 60,
            "max" : [
                0.5625048279762268,
                5.264473915100098,
                0.5625020265579224
            ],
            "min" : [
                -0.5625030994415283,
                5.264473915100098,
                -0.562505841255188
            ],
            "type" : "VEC3"
        },
        {
            "bufferView" : 15,
            "componentType" : 5126,
            "count" : 60,
            "type" : "VEC3"
        },
        {
            "bufferView" : 16,
            "componentType" : 5126,
            "count" : 60,
            "type" : "VEC2"
        },
        {
            "bufferView" : 17,
            "componentType" : 5123,
            "count" : 174,
            "type" : "SCALAR"
        },
        {
            "bufferView" : 18,
            "componentType" : 5126,
            "count" : 300,
            "max" : [
                0.5624985098838806,
                3.5275309085845947,
                0.5625032186508179
            ],
            "min" : [
                -0.5625093579292297,
                -3.509521245956421,
                -0.5625045895576477
            ],
            "type" : "VEC3"
        },
        {
            "bufferView" : 19,
            "componentType" : 5126,
            "count" : 300,
            "type" : "VEC3"
        },
        {
            "bufferView" : 20,
            "componentType" : 5126,
            "count" : 300,
            "type" : "VEC2"
        },
        {
            "bufferView" : 21,
            "componentType" : 5123,
            "count" : 534,
            "type" : "SCALAR"
        }
    ],
    "bufferViews" : [
        {
            "buffer" : 0,
            "byteLength" : 54912,
            "byteOffset" : 0
        },
        {
            "buffer" : 0,
            "byteLength" : 54912,
            "byteOffset" : 54912
        },
        {
            "buffer" : 0,
            "byteLength" : 36608,
            "byteOffset" : 109824
        },
        {
            "buffer" : 0,
            "byteLength" : 10800,
            "byteOffset" : 146432
        },
        {
            "buffer" : 0,
            "byteLength" : 8285,
            "byteOffset" : 157232
        },
        {
            "buffer" : 0,
            "byteLength" : 1764,
            "byteOffset" : 165520
        },
        {
            "buffer" : 0,
            "byteLength" : 1764,
            "byteOffset" : 167284
        },
        {
            "buffer" : 0,
            "byteLength" : 1176,
            "byteOffset" : 169048
        },
        {
            "buffer" : 0,
            "byteLength" : 348,
            "byteOffset" : 170224
        },
        {
            "buffer" : 0,
            "byteLength" : 6491,
            "byteOffset" : 170572
        },
        {
            "buffer" : 0,
            "byteLength" : 3600,
            "byteOffset" : 177064
        },
        {
            "buffer" : 0,
            "byteLength" : 3600,
            "byteOffset" : 180664
        },
        {
            "buffer" : 0,
            "byteLength" : 2400,
            "byteOffset" : 184264
        },
        {
            "buffer" : 0,
            "byteLength" : 1068,
            "byteOffset" : 186664
        },
        {
            "buffer" : 0,
            "byteLength" : 720,
            "byteOffset" : 187732
        },
        {
            "buffer" : 0,
            "byteLength" : 720,
            "byteOffset" : 188452
        },
        {
            "buffer" : 0,
            "byteLength" : 480,
            "byteOffset" : 189172
        },
        {
            "buffer" : 0,
            "byteLength" : 348,
            "byteOffset" : 189652
        },
        {
            "buffer" : 0,
            "byteLength" : 3600,
            "byteOffset" : 190000
        },
        {
            "buffer" : 0,
            "byteLength" : 3600,
            "byteOffset" : 193600
        },
        {
            "buffer" : 0,
            "byteLength" : 2400,
            "byteOffset" : 197200
        },
        {
            "buffer" : 0,
            "byteLength" : 1068,
            "byteOffset" : 199600
        }
    ],
    "samplers" : [
        {
            "magFilter" : 9729,
            "minFilter" : 9987
        }
    ],
    "buffers" : [
        {
            "byteLength" : 200668,
            "uri" : "data:application/octet-stream;base64,"
        }
    ]
}
