{
    "asset" : {
        "generator" : "Khronos glTF Blender I/O v1.6.16",
        "version" : "2.0"
    },
    "scene" : 0,
    "scenes" : [
        {
            "name" : "Scene",
            "nodes" : [
                0,
                1,
                2,
                3,
                4,
                5
            ]
        }
    ],
    "nodes" : [
        {
            "mesh" : 0,
            "name" : "Cube.001"
        },
        {
            "mesh" : 1,
            "name" : "Cube.002"
        },
        {
            "mesh" : 2,
            "name" : "Cube.003"
        },
        {
            "mesh" : 3,
            "name" : "Cube.004"
        },
        {
            "mesh" : 4,
            "name" : "Cube.007"
        },
        {
            "mesh" : 5,
            "name" : "Cube.008"
        }
    ],
    "materials" : [
        {
            "name" : "Material_0",
            "pbrMetallicRoughness" : {
                "baseColorFactor" : [
                    0.7843137383460999,
                    0.8470588326454163,
                    0.3294117748737335,
                    1
                ]
            }
        },
        {
            "name" : "Material_1",
            "pbrMetallicRoughness" : {
                "baseColorFactor" : [
                    0.7843137383460999,
                    0.8470588326454163,
                    0.3294117748737335,
                    1
                ]
            }
        },
        {
            "name" : "Material_2",
            "pbrMetallicRoughness" : {
                "baseColorFactor" : [
                    0.34117648005485535,
                    0.529411792755127,
                    0.6078431606292725,
                    1
                ]
            }
        },
        {
            "name" : "Material_3",
            "pbrMetallicRoughness" : {
                "baseColorFactor" : [
                    0.9803921580314636,
                    0.800000011920929,
                    0.18039216101169586,
                    1
                ]
            }
        },
        {
            "name" : "Material_4",
            "pbrMetallicRoughness" : {
                "baseColorFactor" : [
                    0.9803921580314636,
                    0.800000011920929,
                    0.18039216101169586,
                    1
                ]
            }
        },
        {
            "name" : "Material_5",
            "pbrMetallicRoughness" : {
                "baseColorFactor" : [
                    0.9803921580314636,
                    0.800000011920929,
                    0.18039216101169586,
                    1
                ]
            }
        }
    ],
    "meshes" : [
        {
            "name" : "Mesh_0",
            "primitives" : [
                {
                    "attributes" : {
                        "POSITION" : 0,
                        "NORMAL" : 1,
                        "TEXCOORD_0" : 2
                    },
                    "indices" : 3,
                    "material" : 0
                }
            ]
        },
        {
            "name" : "Mesh_1",
            "primitives" : [
                {
                    "attributes" : {
                        "POSITION" : 4,
                        "NORMAL" : 5,
                        "TEXCOORD_0" : 6
                    },
                    "indices" : 7,
                    "material" : 1
                }
            ]
        },
        {
            "name" : "Mesh_2",
            "primitives" : [
                {
                    "attributes" : {
                        "POSITION" : 8,
                        "NORMAL" : 9,
                        "TEXCOORD_0" : 10
                    },
                    "indices" : 11,
                    "material" : 2
                }
            ]
        },
        {
            "name" : "Mesh_3",
            "primitives" : [
                {
                    "attributes" : {
                        "POSITION" : 12,
                        "NORMAL" : 13,
                        "TEXCOORD_0" : 14
                    },
                    "indices" : 15,
                    "material" : 3
                }
            ]
        },
        {
            "name" : "Mesh_4",
            "primitives" : [
                {
                    "attributes" : {
                        "POSITION" : 16,
                        "NORMAL" : 17,
                        "TEXCOORD_0" : 18
                    },
                    "indices" : 19,
                    "material" : 4
                }
            ]
        },
        {
            "name" : "Mesh_5",
            "primitives" : [
                {
                    "attributes" : {
                        "POSITION" : 20,
                        "NORMAL" : 21,
                        "TEXCOORD_0" : 22
                    },
                    "indices" : 11,
                    "material" : 5
                }
            ]
        }
    ],
    "accessors" : [
        {
            "bufferView" : 0,
            "componentType" : 5126,
            "count" : 28,
            "max" : [
                -0.07517953217029572,
                0.6746031045913696,
                0.16539493203163147
            ],
            "min" : [
                -0.3758975863456726,
                0.013023346662521362,
                -0.16539493203163147
            ],
            "type" : "VEC3"
        },
        {
            "bufferView" : 1,
            "componentType" : 5126,
            "count" : 28,
            "type" : "VEC3"
        },
        {
            "bufferView" : 2,
            "componentType" : 5126,
            "count" : 28,
            "type" : "VEC2"
        },
        {
            "bufferView" : 3,
            "componentType" : 5123,
            "count" : 36,
            "type" : "SCALAR"
        },
        {
            "bufferView" : 4,
            "componentType" : 5126,
            "count" : 28,
            "max" : [
                0.3758975863456726,
                0.6746031045913696,
                0.16539493203163147
            ],
            "min" : [
                0.07517953217029572,
                0.013023346662521362,
                -0.16539493203163147
            ],
            "type" : "VEC3"
        },
        {
            "bufferView" : 5,
            "componentType" : 5126,
            "count" : 28,
            "type" : "VEC3"
        },
        {
            "bufferView" : 6,
            "componentType" : 5126,
            "count" : 28,
            "type" : "VEC2"
        },
        {
            "bufferView" : 7,
            "componentType" : 5123,
            "count" : 36,
            "type" : "SCALAR"
        },
        {
            "bufferView" : 8,
            "componentType" : 5126,
            "count" : 24,
            "max" : [
                0.37589752674102783,
                1.4865418672561646,
                0.16539493203163147
            ],
            "min" : [
                -0.37589752674102783,
                0.7347468137741089,
                -0.16539493203163147
            ],
            "type" : "VEC3"
        },
        {
            "bufferView" : 9,
            "componentType" : 5126,
            "count" : 24,
            "type" : "VEC3"
        },
        {
            "bufferView" : 10,
            "componentType" : 5126,
            "count" : 24,
            "type" : "VEC2"
        },
        {
            "bufferView" : 11,
            "componentType" : 5123,
            "count" : 36,
            "type" : "SCALAR"
        },
        {
            "bufferView" : 12,
            "componentType" : 5126,
            "count" : 34,
            "max" : [
                -0.45107704401016235,
                1.44023597240448,
                0.25441208481788635
            ],
            "min" : [
                -0.7517951130867004,
                0.7810527682304382,
                -0.4047711491584778
            ],
            "type" : "VEC3"
        },
        {
            "bufferView" : 13,
            "componentType" : 5126,
            "count" : 34,
            "type" : "VEC3"
        },
        {
            "bufferView" : 14,
            "componentType" : 5126,
            "count" : 34,
            "type" : "VEC2"
        },
        {
            "bufferView" : 15,
            "componentType" : 5123,
            "count" : 36,
            "type" : "SCALAR"
        },
        {
            "bufferView" : 16,
            "componentType" : 5126,
            "count" : 34,
            "max" : [
                0.7517951130867004,
                1.44023597240448,
                0.4047711491584778
            ],
            "min" : [
                0.45107704401016235,
                0.7810527682304382,
                -0.25441208481788635
            ],
            "type" : "VEC3"
        },
        {
            "bufferView" : 17,
            "componentType" : 5126,
            "count" : 34,
            "type" : "VEC3"
        },
        {
            "bufferView" : 18,
            "componentType" : 5126,
            "count" : 34,
            "type" : "VEC2"
        },
        {
            "bufferView" : 19,
            "componentType" : 5123,
            "count" : 36,
            "type" : "SCALAR"
        },
        {
            "bufferView" : 20,
            "componentType" : 5126,
            "count" : 24,
            "max" : [
                0.16539493203163147,
                1.9225832223892212,
                0.16539493203163147
            ],
            "min" : [
                -0.16539493203163147,
                1.5617214441299438,
                -0.16539493203163147
            ],
            "type" : "VEC3"
        },
        {
            "bufferView" : 21,
            "componentType" : 5126,
            "count" : 24,
            "type" : "VEC3"
        },
        {
            "bufferView" : 22,
            "componentType" : 5126,
            "count" : 24,
            "type" : "VEC2"
        }
    ],
    "bufferViews" : [
        {
            "buffer" : 0,
            "byteLength" : 336,
            "byteOffset" : 0
        },
        {
            "buffer" : 0,
            "byteLength" : 336,
            "byteOffset" : 336
        },
        {
            "buffer" : 0,
            "byteLength" : 224,
            "byteOffset" : 672
        },
        {
            "buffer" : 0,
            "byteLength" : 72,
            "byteOffset" : 896
        },
        {
            "buffer" : 0,
            "byteLength" : 336,
            "byteOffset" : 968
        },
        {
            "buffer" : 0,
            "byteLength" : 336,
            "byteOffset" : 1304
        },
        {
            "buffer" : 0,
            "byteLength" : 224,
            "byteOffset" : 1640
        },
        {
            "buffer" : 0,
            "byteLength" : 72,
            "byteOffset" : 1864
        },
        {
            "buffer" : 0,
            "byteLength" : 288,
            "byteOffset" : 1936
        },
        {
            "buffer" : 0,
            "byteLength" : 288,
            "byteOffset" : 2224
        },
        {
            "buffer" : 0,
            "byteLength" : 192,
            "byteOffset" : 2512
        },
        {
            "buffer" : 0,
            "byteLength" : 72,
            "byteOffset" : 2704
        },
        {
            "buffer" : 0,
            "byteLength" : 408,
            "byteOffset" : 2776
        },
        {
            "buffer" : 0,
            "byteLength" : 408,
            "byteOffset" : 3184
        },
        {
            "buffer" : 0,
            "byteLength" : 272,
            "byteOffset" : 3592
        },
        {
            "buffer" : 0,
            "byteLength" : 72,
            "byteOffset" : 3864
        },
        {
            "buffer" : 0,
            "byteLength" : 408,
            "byteOffset" : 3936
        },
        {
            "buffer" : 0,
            "byteLength" : 408,
            "byteOffset" : 4344
        },
        {
            "buffer" : 0,
            "byteLength" : 272,
            "byteOffset" : 4752
        },
        {
            "buffer" : 0,
            "byteLength" : 72,
            "byteOffset" : 5024
        },
        {
            "buffer" : 0,
            "byteLength" : 288,
            "byteOffset" : 5096
        },
        {
            "buffer" : 0,
            "byteLength" : 288,
            "byteOffset" : 5384
        },
        {
            "buffer" : 0,
            "byteLength" : 192,
            "byteOffset" : 5672
        }
    ],
    "buffers" : [
        {
            "byteLength" : 5864,
            "uri" : "data:application/octet-stream;base64,"
        }
    ]
}
