{
    "asset" : {
        "generator" : "Khronos glTF Blender I/O v1.6.16",
        "version" : "2.0"
    },
    "scene" : 0,
    "scenes" : [
        {
            "name" : "Scene",
            "nodes" : [
                0
            ]
        }
    ],
    "nodes" : [
        {
            "mesh" : 0,
            "name" : "Amaryllis City",
            "rotation" : [
                0.7071068286895752,
                0,
                0,
                0.7071067094802856
            ]
        }
    ],
    "materials" : [
        {
            "doubleSided" : true,
            "name" : "_23.001",
            "pbrMetallicRoughness" : {
                "baseColorTexture" : {
                    "index" : 0
                },
                "metallicFactor" : 0
            }
        },
        {
            "doubleSided" : true,
            "name" : "Grass.001",
            "pbrMetallicRoughness" : {
                "baseColorTexture" : {
                    "index" : 1
                },
                "metallicFactor" : 0
            }
        },
        {
            "doubleSided" : true,
            "name" : "Forest.001",
            "pbrMetallicRoughness" : {
                "baseColorTexture" : {
                    "index" : 2
                },
                "metallicFactor" : 0
            }
        },
        {
            "doubleSided" : true,
            "name" : "FrontColor.001",
            "pbrMetallicRoughness" : {
                "metallicFactor" : 0
            }
        },
        {
            "doubleSided" : true,
            "name" : "Road.001",
            "pbrMetallicRoughness" : {
                "baseColorTexture" : {
                    "index" : 3
                },
                "metallicFactor" : 0
            }
        },
        {
            "doubleSided" : true,
            "name" : "Beach.001",
            "pbrMetallicRoughness" : {
                "baseColorTexture" : {
                    "index" : 4
                },
                "metallicFactor" : 0
            }
        },
        {
            "doubleSided" : true,
            "name" : "Shallow_Ocean_Water.001",
            "pbrMetallicRoughness" : {
                "baseColorTexture" : {
                    "index" : 5
                },
                "metallicFactor" : 0
            }
        },
        {
            "doubleSided" : true,
            "name" : "Deep_Ocean_Water.001",
            "pbrMetallicRoughness" : {
                "baseColorTexture" : {
                    "index" : 6
                },
                "metallicFactor" : 0
            }
        }
    ],
    "meshes" : [
        {
            "name" : "Amaryllis City.002",
            "primitives" : [
                {
                    "attributes" : {
                        "POSITION" : 0,
                        "NORMAL" : 1,
                        "TEXCOORD_0" : 2
                    },
                    "indices" : 3,
                    "material" : 0
                },
                {
                    "attributes" : {
                        "POSITION" : 4,
                        "NORMAL" : 5,
                        "TEXCOORD_0" : 6
                    },
                    "indices" : 7,
                    "material" : 1
                },
                {
                    "attributes" : {
                        "POSITION" : 8,
                        "NORMAL" : 9,
                        "TEXCOORD_0" : 10
                    },
                    "indices" : 11,
                    "material" : 2
                },
                {
                    "attributes" : {
                        "POSITION" : 12,
                        "NORMAL" : 13,
                        "TEXCOORD_0" : 14
                    },
                    "indices" : 15,
                    "material" : 3
                },
                {
                    "attributes" : {
                        "POSITION" : 16,
                        "NORMAL" : 17,
                        "TEXCOORD_0" : 18
                    },
                    "indices" : 19,
                    "material" : 4
                },
                {
                    "attributes" : {
                        "POSITION" : 20,
                        "NORMAL" : 21,
                        "TEXCOORD_0" : 22
                    },
                    "indices" : 23,
                    "material" : 5
                },
                {
                    "attributes" : {
                        "POSITION" : 24,
                        "NORMAL" : 25,
                        "TEXCOORD_0" : 26
                    },
                    "indices" : 27,
                    "material" : 6
                },
                {
                    "attributes" : {
                        "POSITION" : 28,
                        "NORMAL" : 29,
                        "TEXCOORD_0" : 30
                    },
                    "indices" : 27,
                    "material" : 7
                }
            ]
        }
    ],
    "textures" : [
        {
            "sampler" : 0,
            "source" : 0
        },
        {
            "sampler" : 0,
            "source" : 1
        },
        {
            "sampler" : 0,
            "source" : 2
        },
        {
            "sampler" : 0,
            "source" : 3
        },
        {
            "sampler" : 0,
            "source" : 4
        },
        {
            "sampler" : 0,
            "source" : 5
        },
        {
            "sampler" : 0,
            "source" : 6
        }
    ],
    "images" : [
        {
            "bufferView" : 4,
            "mimeType" : "image/png",
            "name" : "_23"
        },
        {
            "bufferView" : 9,
            "mimeType" : "image/jpeg",
            "name" : "Grass"
        },
        {
            "bufferView" : 14,
            "mimeType" : "image/png",
            "name" : "Forest"
        },
        {
            "bufferView" : 23,
            "mimeType" : "image/jpeg",
            "name" : "Road"
        },
        {
            "bufferView" : 28,
            "mimeType" : "image/jpeg",
            "name" : "Beach"
        },
        {
            "bufferView" : 33,
            "mimeType" : "image/jpeg",
            "name" : "Shallow_Ocean_Water"
        },
        {
            "bufferView" : 37,
            "mimeType" : "image/jpeg",
            "name" : "Deep_Ocean_Water"
        }
    ],
    "accessors" : [
        {
            "bufferView" : 0,
            "componentType" : 5126,
            "count" : 182,
            "max" : [
                13.053425788879395,
                12.05954647064209,
                1.5218464136123657
            ],
            "min" : [
                -10.946574211120605,
                -11.940454483032227,
                -3.993741989135742
            ],
            "type" : "VEC3"
        },
        {
            "bufferView" : 1,
            "componentType" : 5126,
            "count" : 182,
            "type" : "VEC3"
        },
        {
            "bufferView" : 2,
            "componentType" : 5126,
            "count" : 182,
            "type" : "VEC2"
        },
        {
            "bufferView" : 3,
            "componentType" : 5123,
            "count" : 510,
            "type" : "SCALAR"
        },
        {
            "bufferView" : 5,
            "componentType" : 5126,
            "count" : 371,
            "max" : [
                9.486387252807617,
                12.05954647064209,
                0.2223837822675705
            ],
            "min" : [
                -9.520757675170898,
                -11.940454483032227,
                -3.574916124343872
            ],
            "type" : "VEC3"
        },
        {
            "bufferView" : 6,
            "componentType" : 5126,
            "count" : 371,
            "type" : "VEC3"
        },
        {
            "bufferView" : 7,
            "componentType" : 5126,
            "count" : 371,
            "type" : "VEC2"
        },
        {
            "bufferView" : 8,
            "componentType" : 5123,
            "count" : 882,
            "type" : "SCALAR"
        },
        {
            "bufferView" : 10,
            "componentType" : 5126,
            "count" : 818,
            "max" : [
                9.402329444885254,
                12.05954647064209,
                0.2223837822675705
            ],
            "min" : [
                -10.946574211120605,
                -11.940454483032227,
                -3.993741989135742
            ],
            "type" : "VEC3"
        },
        {
            "bufferView" : 11,
            "componentType" : 5126,
            "count" : 818,
            "type" : "VEC3"
        },
        {
            "bufferView" : 12,
            "componentType" : 5126,
            "count" : 818,
            "type" : "VEC2"
        },
        {
            "bufferView" : 13,
            "componentType" : 5123,
            "count" : 2955,
            "type" : "SCALAR"
        },
        {
            "bufferView" : 15,
            "componentType" : 5126,
            "count" : 3,
            "max" : [
                0.34968337416648865,
                -3.359997510910034,
                -0.8224582672119141
            ],
            "min" : [
                0.30662307143211365,
                -3.5116028785705566,
                -0.8246482014656067
            ],
            "type" : "VEC3"
        },
        {
            "bufferView" : 16,
            "componentType" : 5126,
            "count" : 3,
            "type" : "VEC3"
        },
        {
            "bufferView" : 17,
            "componentType" : 5126,
            "count" : 3,
            "type" : "VEC2"
        },
        {
            "bufferView" : 18,
            "componentType" : 5123,
            "count" : 3,
            "type" : "SCALAR"
        },
        {
            "bufferView" : 19,
            "componentType" : 5126,
            "count" : 114,
            "max" : [
                -7.6007561683654785,
                12.05954647064209,
                -2.7407960891723633
            ],
            "min" : [
                -8.56075668334961,
                -11.940454483032227,
                -3.4165961742401123
            ],
            "type" : "VEC3"
        },
        {
            "bufferView" : 20,
            "componentType" : 5126,
            "count" : 114,
            "type" : "VEC3"
        },
        {
            "bufferView" : 21,
            "componentType" : 5126,
            "count" : 114,
            "type" : "VEC2"
        },
        {
            "bufferView" : 22,
            "componentType" : 5123,
            "count" : 252,
            "type" : "SCALAR"
        },
        {
            "bufferView" : 24,
            "componentType" : 5126,
            "count" : 54,
            "max" : [
                11.287242889404297,
                12.05954647064209,
                0.3183837831020355
            ],
            "min" : [
                9.486387252807617,
                -11.940454483032227,
                0.2223837822675705
            ],
            "type" : "VEC3"
        },
        {
            "bufferView" : 25,
            "componentType" : 5126,
            "count" : 54,
            "type" : "VEC3"
        },
        {
            "bufferView" : 26,
            "componentType" : 5126,
            "count" : 54,
            "type" : "VEC2"
        },
        {
            "bufferView" : 27,
            "componentType" : 5123,
            "count" : 84,
            "type" : "SCALAR"
        },
        {
            "bufferView" : 29,
            "componentType" : 5126,
            "count" : 4,
            "max" : [
                12.151243209838867,
                12.05954647064209,
                0.3183837831020355
            ],
            "min" : [
                11.287242889404297,
                -11.940454483032227,
                0.3183837831020355
            ],
            "type" : "VEC3"
        },
        {
            "bufferView" : 30,
            "componentType" : 5126,
            "count" : 4,
            "type" : "VEC3"
        },
        {
            "bufferView" : 31,
            "componentType" : 5126,
            "count" : 4,
            "type" : "VEC2"
        },
        {
            "bufferView" : 32,
            "componentType" : 5123,
            "count" : 6,
            "type" : "SCALAR"
        },
        {
            "bufferView" : 34,
            "componentType" : 5126,
            "count" : 4,
            "max" : [
                13.053425788879395,
                12.05954647064209,
                0.3183837831020355
            ],
            "min" : [
                12.151243209838867,
                -11.940454483032227,
                0.3183837831020355
            ],
            "type" : "VEC3"
        },
        {
            "bufferView" : 35,
            "componentType" : 5126,
            "count" : 4,
            "type" : "VEC3"
        },
        {
            "bufferView" : 36,
            "componentType" : 5126,
            "count" : 4,
            "type" : "VEC2"
        }
    ],
    "bufferViews" : [
        {
            "buffer" : 0,
            "byteLength" : 2184,
            "byteOffset" : 0
        },
        {
            "buffer" : 0,
            "byteLength" : 2184,
            "byteOffset" : 2184
        },
        {
            "buffer" : 0,
            "byteLength" : 1456,
            "byteOffset" : 4368
        },
        {
            "buffer" : 0,
            "byteLength" : 1020,
            "byteOffset" : 5824
        },
        {
            "buffer" : 0,
            "byteLength" : 16460,
            "byteOffset" : 6844
        },
        {
            "buffer" : 0,
            "byteLength" : 4452,
            "byteOffset" : 23304
        },
        {
            "buffer" : 0,
            "byteLength" : 4452,
            "byteOffset" : 27756
        },
        {
            "buffer" : 0,
            "byteLength" : 2968,
            "byteOffset" : 32208
        },
        {
            "buffer" : 0,
            "byteLength" : 1764,
            "byteOffset" : 35176
        },
        {
            "buffer" : 0,
            "byteLength" : 63274,
            "byteOffset" : 36940
        },
        {
            "buffer" : 0,
            "byteLength" : 9816,
            "byteOffset" : 100216
        },
        {
            "buffer" : 0,
            "byteLength" : 9816,
            "byteOffset" : 110032
        },
        {
            "buffer" : 0,
            "byteLength" : 6544,
            "byteOffset" : 119848
        },
        {
            "buffer" : 0,
            "byteLength" : 5910,
            "byteOffset" : 126392
        },
        {
            "buffer" : 0,
            "byteLength" : 418693,
            "byteOffset" : 132304
        },
        {
            "buffer" : 0,
            "byteLength" : 36,
            "byteOffset" : 551000
        },
        {
            "buffer" : 0,
            "byteLength" : 36,
            "byteOffset" : 551036
        },
        {
            "buffer" : 0,
            "byteLength" : 24,
            "byteOffset" : 551072
        },
        {
            "buffer" : 0,
            "byteLength" : 6,
            "byteOffset" : 551096
        },
        {
            "buffer" : 0,
            "byteLength" : 1368,
            "byteOffset" : 551104
        },
        {
            "buffer" : 0,
            "byteLength" : 1368,
            "byteOffset" : 552472
        },
        {
            "buffer" : 0,
            "byteLength" : 912,
            "byteOffset" : 553840
        },
        {
            "buffer" : 0,
            "byteLength" : 504,
            "byteOffset" : 554752
        },
        {
            "buffer" : 0,
            "byteLength" : 638048,
            "byteOffset" : 555256
        },
        {
            "buffer" : 0,
            "byteLength" : 648,
            "byteOffset" : 1193304
        },
        {
            "buffer" : 0,
            "byteLength" : 648,
            "byteOffset" : 1193952
        },
        {
            "buffer" : 0,
            "byteLength" : 432,
            "byteOffset" : 1194600
        },
        {
            "buffer" : 0,
            "byteLength" : 168,
            "byteOffset" : 1195032
        },
        {
            "buffer" : 0,
            "byteLength" : 365576,
            "byteOffset" : 1195200
        },
        {
            "buffer" : 0,
            "byteLength" : 48,
            "byteOffset" : 1560776
        },
        {
            "buffer" : 0,
            "byteLength" : 48,
            "byteOffset" : 1560824
        },
        {
            "buffer" : 0,
            "byteLength" : 32,
            "byteOffset" : 1560872
        },
        {
            "buffer" : 0,
            "byteLength" : 12,
            "byteOffset" : 1560904
        },
        {
            "buffer" : 0,
            "byteLength" : 225089,
            "byteOffset" : 1560916
        },
        {
            "buffer" : 0,
            "byteLength" : 48,
            "byteOffset" : 1786008
        },
        {
            "buffer" : 0,
            "byteLength" : 48,
            "byteOffset" : 1786056
        },
        {
            "buffer" : 0,
            "byteLength" : 32,
            "byteOffset" : 1786104
        },
        {
            "buffer" : 0,
            "byteLength" : 221950,
            "byteOffset" : 1786136
        }
    ],
    "samplers" : [
        {
            "magFilter" : 9729,
            "minFilter" : 9987
        }
    ],
    "buffers" : [
        {
            "byteLength" : 2008088,
            "uri" : "data:application/octet-stream;base64,"
        }
    ]
}
