{
    "asset" : {
        "generator" : "Khronos glTF Blender I/O v1.6.16",
        "version" : "2.0"
    },
    "scene" : 0,
    "scenes" : [
        {
            "name" : "Scene",
            "nodes" : [
                0,
                1,
                2,
                3
            ]
        }
    ],
    "nodes" : [
        {
            "mesh" : 0,
            "name" : "Boundary",
            "translation" : [
                0,
                1.5,
                0
            ]
        },
        {
            "mesh" : 1,
            "name" : "Reference.001"
        },
        {
            "mesh" : 2,
            "name" : "Reference.002"
        },
        {
            "mesh" : 3,
            "name" : "Boundary.001",
            "scale" : [
                1,
                0.3499999940395355,
                1
            ],
            "translation" : [
                0,
                -0.9100000262260437,
                0
            ]
        }
    ],
    "materials" : [
        {
            "alphaMode" : "BLEND",
            "doubleSided" : true,
            "name" : "Material.001",
            "pbrMetallicRoughness" : {
                "baseColorFactor" : [
                    0.800000011920929,
                    0.800000011920929,
                    0.800000011920929,
                    0
                ],
                "metallicFactor" : 0,
                "roughnessFactor" : 0.5
            }
        },
        {
            "doubleSided" : true,
            "name" : "CartoonGreen",
            "pbrMetallicRoughness" : {
                "baseColorFactor" : [
                    0.036996714770793915,
                    0.45895230770111084,
                    0.011769221164286137,
                    1
                ],
                "metallicFactor" : 0,
                "roughnessFactor" : 0.5
            }
        },
        {
            "doubleSided" : true,
            "name" : "DarkerCartoonGreen",
            "pbrMetallicRoughness" : {
                "baseColorFactor" : [
                    0.016242891550064087,
                    0.17048437893390656,
                    0.00587817095220089,
                    1
                ],
                "metallicFactor" : 0,
                "roughnessFactor" : 0.5
            }
        },
        {
            "doubleSided" : true,
            "name" : "DarkestCarttonGreen",
            "pbrMetallicRoughness" : {
                "baseColorFactor" : [
                    0.008099923841655254,
                    0.07151307165622711,
                    0.0033321892842650414,
                    1
                ],
                "metallicFactor" : 0,
                "roughnessFactor" : 0.5
            }
        },
        {
            "doubleSided" : true,
            "name" : "CartoonSoil",
            "pbrMetallicRoughness" : {
                "baseColorFactor" : [
                    0.061655107885599136,
                    0.03696359694004059,
                    0.009211472235620022,
                    1
                ],
                "metallicFactor" : 0,
                "roughnessFactor" : 0.5
            }
        },
        {
            "doubleSided" : true,
            "name" : "CartoonSand",
            "pbrMetallicRoughness" : {
                "baseColorFactor" : [
                    0.6866128444671631,
                    0.44416195154190063,
                    0.001858683885075152,
                    1
                ],
                "metallicFactor" : 0,
                "roughnessFactor" : 0.5
            }
        },
        {
            "doubleSided" : true,
            "name" : "DarkerCartoonSand",
            "pbrMetallicRoughness" : {
                "baseColorFactor" : [
                    0.5548074841499329,
                    0.37065887451171875,
                    0.012344724498689175,
                    1
                ],
                "metallicFactor" : 0,
                "roughnessFactor" : 0.5
            }
        },
        {
            "doubleSided" : true,
            "name" : "Material",
            "pbrMetallicRoughness" : {
                "baseColorFactor" : [
                    0.27659696340560913,
                    0.2798382639884949,
                    0.2870405614376068,
                    1
                ],
                "metallicFactor" : 0.20000000298023224,
                "roughnessFactor" : 0.7836363315582275
            }
        }
    ],
    "meshes" : [
        {
            "name" : "Cube.004",
            "primitives" : [
                {
                    "attributes" : {
                        "POSITION" : 0,
                        "NORMAL" : 1,
                        "TEXCOORD_0" : 2,
                        "TEXCOORD_1" : 3
                    },
                    "indices" : 4,
                    "material" : 0
                }
            ]
        },
        {
            "name" : "Cube.005",
            "primitives" : [
                {
                    "attributes" : {
                        "POSITION" : 5,
                        "NORMAL" : 6,
                        "TEXCOORD_0" : 7,
                        "TEXCOORD_1" : 8
                    },
                    "indices" : 9,
                    "material" : 1
                },
                {
                    "attributes" : {
                        "POSITION" : 10,
                        "NORMAL" : 11,
                        "TEXCOORD_0" : 12,
                        "TEXCOORD_1" : 13
                    },
                    "indices" : 14,
                    "material" : 2
                },
                {
                    "attributes" : {
                        "POSITION" : 15,
                        "NORMAL" : 16,
                        "TEXCOORD_0" : 17,
                        "TEXCOORD_1" : 18
                    },
                    "indices" : 19,
                    "material" : 3
                },
                {
                    "attributes" : {
                        "POSITION" : 20,
                        "NORMAL" : 21,
                        "TEXCOORD_0" : 22,
                        "TEXCOORD_1" : 23
                    },
                    "indices" : 24,
                    "material" : 4
                }
            ]
        },
        {
            "name" : "Cube.006",
            "primitives" : [
                {
                    "attributes" : {
                        "POSITION" : 25,
                        "NORMAL" : 26,
                        "TEXCOORD_0" : 27,
                        "TEXCOORD_1" : 28
                    },
                    "indices" : 29,
                    "material" : 1
                },
                {
                    "attributes" : {
                        "POSITION" : 30,
                        "NORMAL" : 31,
                        "TEXCOORD_0" : 32,
                        "TEXCOORD_1" : 33
                    },
                    "indices" : 34,
                    "material" : 4
                },
                {
                    "attributes" : {
                        "POSITION" : 35,
                        "NORMAL" : 36,
                        "TEXCOORD_0" : 37,
                        "TEXCOORD_1" : 38
                    },
                    "indices" : 39,
                    "material" : 5
                },
                {
                    "attributes" : {
                        "POSITION" : 40,
                        "NORMAL" : 41,
                        "TEXCOORD_0" : 42,
                        "TEXCOORD_1" : 43
                    },
                    "indices" : 44,
                    "material" : 6
                }
            ]
        },
        {
            "name" : "Cube.003",
            "primitives" : [
                {
                    "attributes" : {
                        "POSITION" : 45,
                        "NORMAL" : 46,
                        "TEXCOORD_0" : 47,
                        "TEXCOORD_1" : 48
                    },
                    "indices" : 4,
                    "material" : 7
                }
            ]
        }
    ],
    "accessors" : [
        {
            "bufferView" : 0,
            "componentType" : 5126,
            "count" : 24,
            "max" : [
                12,
                -3.75,
                12
            ],
            "min" : [
                -12,
                -4.25,
                -12
            ],
            "type" : "VEC3"
        },
        {
            "bufferView" : 1,
            "componentType" : 5126,
            "count" : 24,
            "type" : "VEC3"
        },
        {
            "bufferView" : 2,
            "componentType" : 5126,
            "count" : 24,
            "type" : "VEC2"
        },
        {
            "bufferView" : 3,
            "componentType" : 5126,
            "count" : 24,
            "type" : "VEC2"
        },
        {
            "bufferView" : 4,
            "componentType" : 5123,
            "count" : 36,
            "type" : "SCALAR"
        },
        {
            "bufferView" : 5,
            "componentType" : 5126,
            "count" : 8,
            "max" : [
                1.1098157167434692,
                1.0681849718093872,
                12
            ],
            "min" : [
                -12,
                -1.4000000953674316,
                -12.260550498962402
            ],
            "type" : "VEC3"
        },
        {
            "bufferView" : 6,
            "componentType" : 5126,
            "count" : 8,
            "type" : "VEC3"
        },
        {
            "bufferView" : 7,
            "componentType" : 5126,
            "count" : 8,
            "type" : "VEC2"
        },
        {
            "bufferView" : 8,
            "componentType" : 5126,
            "count" : 8,
            "type" : "VEC2"
        },
        {
            "bufferView" : 9,
            "componentType" : 5123,
            "count" : 12,
            "type" : "SCALAR"
        },
        {
            "bufferView" : 10,
            "componentType" : 5126,
            "count" : 8,
            "max" : [
                1.1098157167434692,
                3.903895378112793,
                12
            ],
            "min" : [
                -9.519370079040527,
                0.7381400465965271,
                -12.504968643188477
            ],
            "type" : "VEC3"
        },
        {
            "bufferView" : 11,
            "componentType" : 5126,
            "count" : 8,
            "type" : "VEC3"
        },
        {
            "bufferView" : 12,
            "componentType" : 5126,
            "count" : 8,
            "type" : "VEC2"
        },
        {
            "bufferView" : 13,
            "componentType" : 5126,
            "count" : 8,
            "type" : "VEC2"
        },
        {
            "bufferView" : 14,
            "componentType" : 5123,
            "count" : 12,
            "type" : "SCALAR"
        },
        {
            "bufferView" : 15,
            "componentType" : 5126,
            "count" : 12,
            "max" : [
                -6.825813293457031,
                3.903895378112793,
                12
            ],
            "min" : [
                -12,
                3.250930070877075,
                -12.504968643188477
            ],
            "type" : "VEC3"
        },
        {
            "bufferView" : 16,
            "componentType" : 5126,
            "count" : 12,
            "type" : "VEC3"
        },
        {
            "bufferView" : 17,
            "componentType" : 5126,
            "count" : 12,
            "type" : "VEC2"
        },
        {
            "bufferView" : 18,
            "componentType" : 5126,
            "count" : 12,
            "type" : "VEC2"
        },
        {
            "bufferView" : 19,
            "componentType" : 5123,
            "count" : 18,
            "type" : "SCALAR"
        },
        {
            "bufferView" : 20,
            "componentType" : 5126,
            "count" : 20,
            "max" : [
                1.1098157167434692,
                3.903895378112793,
                12
            ],
            "min" : [
                -12,
                -1.4000000953674316,
                -12.504968643188477
            ],
            "type" : "VEC3"
        },
        {
            "bufferView" : 21,
            "componentType" : 5126,
            "count" : 20,
            "type" : "VEC3"
        },
        {
            "bufferView" : 22,
            "componentType" : 5126,
            "count" : 20,
            "type" : "VEC2"
        },
        {
            "bufferView" : 23,
            "componentType" : 5126,
            "count" : 20,
            "type" : "VEC2"
        },
        {
            "bufferView" : 24,
            "componentType" : 5123,
            "count" : 42,
            "type" : "SCALAR"
        },
        {
            "bufferView" : 25,
            "componentType" : 5126,
            "count" : 14,
            "max" : [
                12,
                1.0681849718093872,
                12
            ],
            "min" : [
                -0.5083873271942139,
                -1.4000000953674316,
                -12.260550498962402
            ],
            "type" : "VEC3"
        },
        {
            "bufferView" : 26,
            "componentType" : 5126,
            "count" : 14,
            "type" : "VEC3"
        },
        {
            "bufferView" : 27,
            "componentType" : 5126,
            "count" : 14,
            "type" : "VEC2"
        },
        {
            "bufferView" : 28,
            "componentType" : 5126,
            "count" : 14,
            "type" : "VEC2"
        },
        {
            "bufferView" : 29,
            "componentType" : 5123,
            "count" : 24,
            "type" : "SCALAR"
        },
        {
            "bufferView" : 30,
            "componentType" : 5126,
            "count" : 10,
            "max" : [
                9.729082107543945,
                1.0681849718093872,
                12
            ],
            "min" : [
                -0.5083873271942139,
                -1.4000000953674316,
                -12.260550498962402
            ],
            "type" : "VEC3"
        },
        {
            "bufferView" : 31,
            "componentType" : 5126,
            "count" : 10,
            "type" : "VEC3"
        },
        {
            "bufferView" : 32,
            "componentType" : 5126,
            "count" : 10,
            "type" : "VEC2"
        },
        {
            "bufferView" : 33,
            "componentType" : 5126,
            "count" : 10,
            "type" : "VEC2"
        },
        {
            "bufferView" : 34,
            "componentType" : 5123,
            "count" : 18,
            "type" : "SCALAR"
        },
        {
            "bufferView" : 35,
            "componentType" : 5126,
            "count" : 16,
            "max" : [
                12,
                0.8081537485122681,
                12
            ],
            "min" : [
                8.182072639465332,
                -1.4000000953674316,
                -12
            ],
            "type" : "VEC3"
        },
        {
            "bufferView" : 36,
            "componentType" : 5126,
            "count" : 16,
            "type" : "VEC3"
        },
        {
            "bufferView" : 37,
            "componentType" : 5126,
            "count" : 16,
            "type" : "VEC2"
        },
        {
            "bufferView" : 38,
            "componentType" : 5126,
            "count" : 16,
            "type" : "VEC2"
        },
        {
            "bufferView" : 39,
            "componentType" : 5123,
            "count" : 24,
            "type" : "SCALAR"
        },
        {
            "bufferView" : 40,
            "componentType" : 5126,
            "count" : 4,
            "max" : [
                9.729082107543945,
                0.8207686543464661,
                12
            ],
            "min" : [
                7.799271106719971,
                -0.07033377885818481,
                -12.012639999389648
            ],
            "type" : "VEC3"
        },
        {
            "bufferView" : 41,
            "componentType" : 5126,
            "count" : 4,
            "type" : "VEC3"
        },
        {
            "bufferView" : 42,
            "componentType" : 5126,
            "count" : 4,
            "type" : "VEC2"
        },
        {
            "bufferView" : 43,
            "componentType" : 5126,
            "count" : 4,
            "type" : "VEC2"
        },
        {
            "bufferView" : 44,
            "componentType" : 5123,
            "count" : 6,
            "type" : "SCALAR"
        },
        {
            "bufferView" : 45,
            "componentType" : 5126,
            "count" : 24,
            "max" : [
                12,
                -1.4000000953674316,
                12
            ],
            "min" : [
                -12,
                -3.4000000953674316,
                -12
            ],
            "type" : "VEC3"
        },
        {
            "bufferView" : 46,
            "componentType" : 5126,
            "count" : 24,
            "type" : "VEC3"
        },
        {
            "bufferView" : 47,
            "componentType" : 5126,
            "count" : 24,
            "type" : "VEC2"
        },
        {
            "bufferView" : 48,
            "componentType" : 5126,
            "count" : 24,
            "type" : "VEC2"
        }
    ],
    "bufferViews" : [
        {
            "buffer" : 0,
            "byteLength" : 288,
            "byteOffset" : 0
        },
        {
            "buffer" : 0,
            "byteLength" : 288,
            "byteOffset" : 288
        },
        {
            "buffer" : 0,
            "byteLength" : 192,
            "byteOffset" : 576
        },
        {
            "buffer" : 0,
            "byteLength" : 192,
            "byteOffset" : 768
        },
        {
            "buffer" : 0,
            "byteLength" : 72,
            "byteOffset" : 960
        },
        {
            "buffer" : 0,
            "byteLength" : 96,
            "byteOffset" : 1032
        },
        {
            "buffer" : 0,
            "byteLength" : 96,
            "byteOffset" : 1128
        },
        {
            "buffer" : 0,
            "byteLength" : 64,
            "byteOffset" : 1224
        },
        {
            "buffer" : 0,
            "byteLength" : 64,
            "byteOffset" : 1288
        },
        {
            "buffer" : 0,
            "byteLength" : 24,
            "byteOffset" : 1352
        },
        {
            "buffer" : 0,
            "byteLength" : 96,
            "byteOffset" : 1376
        },
        {
            "buffer" : 0,
            "byteLength" : 96,
            "byteOffset" : 1472
        },
        {
            "buffer" : 0,
            "byteLength" : 64,
            "byteOffset" : 1568
        },
        {
            "buffer" : 0,
            "byteLength" : 64,
            "byteOffset" : 1632
        },
        {
            "buffer" : 0,
            "byteLength" : 24,
            "byteOffset" : 1696
        },
        {
            "buffer" : 0,
            "byteLength" : 144,
            "byteOffset" : 1720
        },
        {
            "buffer" : 0,
            "byteLength" : 144,
            "byteOffset" : 1864
        },
        {
            "buffer" : 0,
            "byteLength" : 96,
            "byteOffset" : 2008
        },
        {
            "buffer" : 0,
            "byteLength" : 96,
            "byteOffset" : 2104
        },
        {
            "buffer" : 0,
            "byteLength" : 36,
            "byteOffset" : 2200
        },
        {
            "buffer" : 0,
            "byteLength" : 240,
            "byteOffset" : 2236
        },
        {
            "buffer" : 0,
            "byteLength" : 240,
            "byteOffset" : 2476
        },
        {
            "buffer" : 0,
            "byteLength" : 160,
            "byteOffset" : 2716
        },
        {
            "buffer" : 0,
            "byteLength" : 160,
            "byteOffset" : 2876
        },
        {
            "buffer" : 0,
            "byteLength" : 84,
            "byteOffset" : 3036
        },
        {
            "buffer" : 0,
            "byteLength" : 168,
            "byteOffset" : 3120
        },
        {
            "buffer" : 0,
            "byteLength" : 168,
            "byteOffset" : 3288
        },
        {
            "buffer" : 0,
            "byteLength" : 112,
            "byteOffset" : 3456
        },
        {
            "buffer" : 0,
            "byteLength" : 112,
            "byteOffset" : 3568
        },
        {
            "buffer" : 0,
            "byteLength" : 48,
            "byteOffset" : 3680
        },
        {
            "buffer" : 0,
            "byteLength" : 120,
            "byteOffset" : 3728
        },
        {
            "buffer" : 0,
            "byteLength" : 120,
            "byteOffset" : 3848
        },
        {
            "buffer" : 0,
            "byteLength" : 80,
            "byteOffset" : 3968
        },
        {
            "buffer" : 0,
            "byteLength" : 80,
            "byteOffset" : 4048
        },
        {
            "buffer" : 0,
            "byteLength" : 36,
            "byteOffset" : 4128
        },
        {
            "buffer" : 0,
            "byteLength" : 192,
            "byteOffset" : 4164
        },
        {
            "buffer" : 0,
            "byteLength" : 192,
            "byteOffset" : 4356
        },
        {
            "buffer" : 0,
            "byteLength" : 128,
            "byteOffset" : 4548
        },
        {
            "buffer" : 0,
            "byteLength" : 128,
            "byteOffset" : 4676
        },
        {
            "buffer" : 0,
            "byteLength" : 48,
            "byteOffset" : 4804
        },
        {
            "buffer" : 0,
            "byteLength" : 48,
            "byteOffset" : 4852
        },
        {
            "buffer" : 0,
            "byteLength" : 48,
            "byteOffset" : 4900
        },
        {
            "buffer" : 0,
            "byteLength" : 32,
            "byteOffset" : 4948
        },
        {
            "buffer" : 0,
            "byteLength" : 32,
            "byteOffset" : 4980
        },
        {
            "buffer" : 0,
            "byteLength" : 12,
            "byteOffset" : 5012
        },
        {
            "buffer" : 0,
            "byteLength" : 288,
            "byteOffset" : 5024
        },
        {
            "buffer" : 0,
            "byteLength" : 288,
            "byteOffset" : 5312
        },
        {
            "buffer" : 0,
            "byteLength" : 192,
            "byteOffset" : 5600
        },
        {
            "buffer" : 0,
            "byteLength" : 192,
            "byteOffset" : 5792
        }
    ],
    "buffers" : [
        {
            "byteLength" : 5984,
            "uri" : "data:application/octet-stream;base64,"
        }
    ]
}
