{
    "asset" : {
        "generator" : "Khronos glTF Blender I/O v1.6.16",
        "version" : "2.0"
    },
    "scene" : 0,
    "scenes" : [
        {
            "name" : "Scene",
            "nodes" : [
                0,
                1,
                2,
                3,
                4,
                5
            ]
        }
    ],
    "nodes" : [
        {
            "mesh" : 0,
            "name" : "building50"
        },
        {
            "mesh" : 1,
            "name" : "building50_cell",
            "translation" : [
                0.4461565911769867,
                1.8696482181549072,
                -0.16468238830566406
            ]
        },
        {
            "mesh" : 2,
            "name" : "building50_cell.001",
            "translation" : [
                -1.0114140510559082,
                2.947618007659912,
                -0.25000178813934326
            ]
        },
        {
            "mesh" : 3,
            "name" : "building50_cell.002",
            "translation" : [
                -0.48287734389305115,
                0.30541330575942993,
                0.0525992214679718
            ]
        },
        {
            "mesh" : 4,
            "name" : "building50_cell.003",
            "translation" : [
                -0.15832263231277466,
                3.178992748260498,
                0.18754655122756958
            ]
        },
        {
            "mesh" : 5,
            "name" : "building50_cell.004",
            "translation" : [
                -0.7318309545516968,
                1.3926968574523926,
                -0.061006009578704834
            ]
        }
    ],
    "materials" : [
        {
            "doubleSided" : true,
            "name" : "Material.065",
            "pbrMetallicRoughness" : {
                "baseColorTexture" : {
                    "index" : 0
                },
                "metallicFactor" : 0,
                "roughnessFactor" : 0.5
            }
        },
        {
            "doubleSided" : true,
            "name" : "Material.113",
            "pbrMetallicRoughness" : {
                "baseColorTexture" : {
                    "index" : 1
                },
                "metallicFactor" : 0,
                "roughnessFactor" : 0.5
            }
        }
    ],
    "meshes" : [
        {
            "name" : "building_008_mesh.003",
            "primitives" : [
                {
                    "attributes" : {
                        "POSITION" : 0,
                        "NORMAL" : 1,
                        "TEXCOORD_0" : 2
                    },
                    "indices" : 3,
                    "material" : 0
                },
                {
                    "attributes" : {
                        "POSITION" : 4,
                        "NORMAL" : 5,
                        "TEXCOORD_0" : 6
                    },
                    "indices" : 7,
                    "material" : 1
                }
            ]
        },
        {
            "name" : "building50_cell.005",
            "primitives" : [
                {
                    "attributes" : {
                        "POSITION" : 8,
                        "NORMAL" : 9,
                        "TEXCOORD_0" : 10
                    },
                    "indices" : 11,
                    "material" : 0
                },
                {
                    "attributes" : {
                        "POSITION" : 12,
                        "NORMAL" : 13,
                        "TEXCOORD_0" : 14
                    },
                    "indices" : 15,
                    "material" : 1
                }
            ]
        },
        {
            "name" : "building50_cell.006",
            "primitives" : [
                {
                    "attributes" : {
                        "POSITION" : 16,
                        "NORMAL" : 17,
                        "TEXCOORD_0" : 18
                    },
                    "indices" : 19,
                    "material" : 0
                },
                {
                    "attributes" : {
                        "POSITION" : 20,
                        "NORMAL" : 21,
                        "TEXCOORD_0" : 22
                    },
                    "indices" : 23,
                    "material" : 1
                }
            ]
        },
        {
            "name" : "building50_cell.001",
            "primitives" : [
                {
                    "attributes" : {
                        "POSITION" : 24,
                        "NORMAL" : 25,
                        "TEXCOORD_0" : 26
                    },
                    "indices" : 27,
                    "material" : 0
                }
            ]
        },
        {
            "name" : "building50_cell.002",
            "primitives" : [
                {
                    "attributes" : {
                        "POSITION" : 28,
                        "NORMAL" : 29,
                        "TEXCOORD_0" : 30
                    },
                    "indices" : 31,
                    "material" : 0
                },
                {
                    "attributes" : {
                        "POSITION" : 32,
                        "NORMAL" : 33,
                        "TEXCOORD_0" : 34
                    },
                    "indices" : 35,
                    "material" : 1
                }
            ]
        },
        {
            "name" : "building50_cell.003",
            "primitives" : [
                {
                    "attributes" : {
                        "POSITION" : 36,
                        "NORMAL" : 37,
                        "TEXCOORD_0" : 38
                    },
                    "indices" : 39,
                    "material" : 0
                }
            ]
        }
    ],
    "textures" : [
        {
            "sampler" : 0,
            "source" : 0
        },
        {
            "sampler" : 0,
            "source" : 1
        }
    ],
    "images" : [
        {
            "bufferView" : 4,
            "mimeType" : "image/jpeg",
            "name" : "8a635e6585d4ceacba00ec627996cdaa"
        },
        {
            "bufferView" : 9,
            "mimeType" : "image/jpeg",
            "name" : "roof3"
        }
    ],
    "accessors" : [
        {
            "bufferView" : 0,
            "componentType" : 5126,
            "count" : 155,
            "max" : [
                0.7500052452087402,
                4.725032806396484,
                0.7500052452087402
            ],
            "min" : [
                -1.4358209371566772,
                0,
                -0.7500052452087402
            ],
            "type" : "VEC3"
        },
        {
            "bufferView" : 1,
            "componentType" : 5126,
            "count" : 155,
            "type" : "VEC3"
        },
        {
            "bufferView" : 2,
            "componentType" : 5126,
            "count" : 155,
            "type" : "VEC2"
        },
        {
            "bufferView" : 3,
            "componentType" : 5123,
            "count" : 336,
            "type" : "SCALAR"
        },
        {
            "bufferView" : 5,
            "componentType" : 5126,
            "count" : 11,
            "max" : [
                0.7500052452087402,
                4.725032806396484,
                0.7500052452087402
            ],
            "min" : [
                -1.4358209371566772,
                4.725032806396484,
                -0.7500052452087402
            ],
            "type" : "VEC3"
        },
        {
            "bufferView" : 6,
            "componentType" : 5126,
            "count" : 11,
            "type" : "VEC3"
        },
        {
            "bufferView" : 7,
            "componentType" : 5126,
            "count" : 11,
            "type" : "VEC2"
        },
        {
            "bufferView" : 8,
            "componentType" : 5123,
            "count" : 18,
            "type" : "SCALAR"
        },
        {
            "bufferView" : 10,
            "componentType" : 5126,
            "count" : 127,
            "max" : [
                0.3542710542678833,
                2.9054770469665527,
                0.9651061296463013
            ],
            "min" : [
                -0.993620753288269,
                -1.9199459552764893,
                -0.6358101963996887
            ],
            "type" : "VEC3"
        },
        {
            "bufferView" : 11,
            "componentType" : 5126,
            "count" : 127,
            "type" : "VEC3"
        },
        {
            "bufferView" : 12,
            "componentType" : 5126,
            "count" : 127,
            "type" : "VEC2"
        },
        {
            "bufferView" : 13,
            "componentType" : 5123,
            "count" : 189,
            "type" : "SCALAR"
        },
        {
            "bufferView" : 14,
            "componentType" : 5126,
            "count" : 3,
            "max" : [
                0.30384865403175354,
                2.855384588241577,
                -0.45382237434387207
            ],
            "min" : [
                0.17176559567451477,
                2.855384588241577,
                -0.5853228569030762
            ],
            "type" : "VEC3"
        },
        {
            "bufferView" : 15,
            "componentType" : 5126,
            "count" : 3,
            "type" : "VEC3"
        },
        {
            "bufferView" : 16,
            "componentType" : 5126,
            "count" : 3,
            "type" : "VEC2"
        },
        {
            "bufferView" : 17,
            "componentType" : 5123,
            "count" : 3,
            "type" : "SCALAR"
        },
        {
            "bufferView" : 18,
            "componentType" : 5126,
            "count" : 40,
            "max" : [
                0.4471716284751892,
                1.7774149179458618,
                0.7344463467597961
            ],
            "min" : [
                -0.42440688610076904,
                -1.6072009801864624,
                -0.5000035166740417
            ],
            "type" : "VEC3"
        },
        {
            "bufferView" : 19,
            "componentType" : 5126,
            "count" : 40,
            "type" : "VEC3"
        },
        {
            "bufferView" : 20,
            "componentType" : 5126,
            "count" : 40,
            "type" : "VEC2"
        },
        {
            "bufferView" : 21,
            "componentType" : 5123,
            "count" : 66,
            "type" : "SCALAR"
        },
        {
            "bufferView" : 22,
            "componentType" : 5126,
            "count" : 6,
            "max" : [
                0.4469120502471924,
                1.7774149179458618,
                0.7344463467597961
            ],
            "min" : [
                -0.42440688610076904,
                1.7774149179458618,
                -0.5000035166740417
            ],
            "type" : "VEC3"
        },
        {
            "bufferView" : 23,
            "componentType" : 5126,
            "count" : 6,
            "type" : "VEC3"
        },
        {
            "bufferView" : 24,
            "componentType" : 5126,
            "count" : 6,
            "type" : "VEC2"
        },
        {
            "bufferView" : 25,
            "componentType" : 5123,
            "count" : 12,
            "type" : "SCALAR"
        },
        {
            "bufferView" : 26,
            "componentType" : 5126,
            "count" : 32,
            "max" : [
                1.2328826189041138,
                0.9065945744514465,
                0.6974060535430908
            ],
            "min" : [
                -0.9529435634613037,
                -0.30541330575942993,
                -0.8026044368743896
            ],
            "type" : "VEC3"
        },
        {
            "bufferView" : 27,
            "componentType" : 5126,
            "count" : 32,
            "type" : "VEC3"
        },
        {
            "bufferView" : 28,
            "componentType" : 5126,
            "count" : 32,
            "type" : "VEC2"
        },
        {
            "bufferView" : 29,
            "componentType" : 5123,
            "count" : 48,
            "type" : "SCALAR"
        },
        {
            "bufferView" : 30,
            "componentType" : 5126,
            "count" : 39,
            "max" : [
                0.9083278775215149,
                1.5460400581359863,
                0.5624586939811707
            ],
            "min" : [
                -0.8822115659713745,
                -1.5426385402679443,
                -0.9375517964363098
            ],
            "type" : "VEC3"
        },
        {
            "bufferView" : 31,
            "componentType" : 5126,
            "count" : 39,
            "type" : "VEC3"
        },
        {
            "bufferView" : 32,
            "componentType" : 5126,
            "count" : 39,
            "type" : "VEC2"
        },
        {
            "bufferView" : 33,
            "componentType" : 5123,
            "count" : 63,
            "type" : "SCALAR"
        },
        {
            "bufferView" : 34,
            "componentType" : 5126,
            "count" : 7,
            "max" : [
                0.9083278775215149,
                1.5460400581359863,
                0.5624586939811707
            ],
            "min" : [
                -0.8822115659713745,
                1.5460400581359863,
                -0.9375517964363098
            ],
            "type" : "VEC3"
        },
        {
            "bufferView" : 35,
            "componentType" : 5126,
            "count" : 7,
            "type" : "VEC3"
        },
        {
            "bufferView" : 36,
            "componentType" : 5126,
            "count" : 7,
            "type" : "VEC2"
        },
        {
            "bufferView" : 37,
            "componentType" : 5123,
            "count" : 15,
            "type" : "SCALAR"
        },
        {
            "bufferView" : 38,
            "componentType" : 5126,
            "count" : 64,
            "max" : [
                1.4562594890594482,
                0.8311602473258972,
                0.8110112547874451
            ],
            "min" : [
                -0.7039899826049805,
                -1.2545543909072876,
                -0.6889992952346802
            ],
            "type" : "VEC3"
        },
        {
            "bufferView" : 39,
            "componentType" : 5126,
            "count" : 64,
            "type" : "VEC3"
        },
        {
            "bufferView" : 40,
            "componentType" : 5126,
            "count" : 64,
            "type" : "VEC2"
        },
        {
            "bufferView" : 41,
            "componentType" : 5123,
            "count" : 114,
            "type" : "SCALAR"
        }
    ],
    "bufferViews" : [
        {
            "buffer" : 0,
            "byteLength" : 1860,
            "byteOffset" : 0
        },
        {
            "buffer" : 0,
            "byteLength" : 1860,
            "byteOffset" : 1860
        },
        {
            "buffer" : 0,
            "byteLength" : 1240,
            "byteOffset" : 3720
        },
        {
            "buffer" : 0,
            "byteLength" : 672,
            "byteOffset" : 4960
        },
        {
            "buffer" : 0,
            "byteLength" : 12562,
            "byteOffset" : 5632
        },
        {
            "buffer" : 0,
            "byteLength" : 132,
            "byteOffset" : 18196
        },
        {
            "buffer" : 0,
            "byteLength" : 132,
            "byteOffset" : 18328
        },
        {
            "buffer" : 0,
            "byteLength" : 88,
            "byteOffset" : 18460
        },
        {
            "buffer" : 0,
            "byteLength" : 36,
            "byteOffset" : 18548
        },
        {
            "buffer" : 0,
            "byteLength" : 6491,
            "byteOffset" : 18584
        },
        {
            "buffer" : 0,
            "byteLength" : 1524,
            "byteOffset" : 25076
        },
        {
            "buffer" : 0,
            "byteLength" : 1524,
            "byteOffset" : 26600
        },
        {
            "buffer" : 0,
            "byteLength" : 1016,
            "byteOffset" : 28124
        },
        {
            "buffer" : 0,
            "byteLength" : 378,
            "byteOffset" : 29140
        },
        {
            "buffer" : 0,
            "byteLength" : 36,
            "byteOffset" : 29520
        },
        {
            "buffer" : 0,
            "byteLength" : 36,
            "byteOffset" : 29556
        },
        {
            "buffer" : 0,
            "byteLength" : 24,
            "byteOffset" : 29592
        },
        {
            "buffer" : 0,
            "byteLength" : 6,
            "byteOffset" : 29616
        },
        {
            "buffer" : 0,
            "byteLength" : 480,
            "byteOffset" : 29624
        },
        {
            "buffer" : 0,
            "byteLength" : 480,
            "byteOffset" : 30104
        },
        {
            "buffer" : 0,
            "byteLength" : 320,
            "byteOffset" : 30584
        },
        {
            "buffer" : 0,
            "byteLength" : 132,
            "byteOffset" : 30904
        },
        {
            "buffer" : 0,
            "byteLength" : 72,
            "byteOffset" : 31036
        },
        {
            "buffer" : 0,
            "byteLength" : 72,
            "byteOffset" : 31108
        },
        {
            "buffer" : 0,
            "byteLength" : 48,
            "byteOffset" : 31180
        },
        {
            "buffer" : 0,
            "byteLength" : 24,
            "byteOffset" : 31228
        },
        {
            "buffer" : 0,
            "byteLength" : 384,
            "byteOffset" : 31252
        },
        {
            "buffer" : 0,
            "byteLength" : 384,
            "byteOffset" : 31636
        },
        {
            "buffer" : 0,
            "byteLength" : 256,
            "byteOffset" : 32020
        },
        {
            "buffer" : 0,
            "byteLength" : 96,
            "byteOffset" : 32276
        },
        {
            "buffer" : 0,
            "byteLength" : 468,
            "byteOffset" : 32372
        },
        {
            "buffer" : 0,
            "byteLength" : 468,
            "byteOffset" : 32840
        },
        {
            "buffer" : 0,
            "byteLength" : 312,
            "byteOffset" : 33308
        },
        {
            "buffer" : 0,
            "byteLength" : 126,
            "byteOffset" : 33620
        },
        {
            "buffer" : 0,
            "byteLength" : 84,
            "byteOffset" : 33748
        },
        {
            "buffer" : 0,
            "byteLength" : 84,
            "byteOffset" : 33832
        },
        {
            "buffer" : 0,
            "byteLength" : 56,
            "byteOffset" : 33916
        },
        {
            "buffer" : 0,
            "byteLength" : 30,
            "byteOffset" : 33972
        },
        {
            "buffer" : 0,
            "byteLength" : 768,
            "byteOffset" : 34004
        },
        {
            "buffer" : 0,
            "byteLength" : 768,
            "byteOffset" : 34772
        },
        {
            "buffer" : 0,
            "byteLength" : 512,
            "byteOffset" : 35540
        },
        {
            "buffer" : 0,
            "byteLength" : 228,
            "byteOffset" : 36052
        }
    ],
    "samplers" : [
        {
            "magFilter" : 9729,
            "minFilter" : 9987
        }
    ],
    "buffers" : [
        {
            "byteLength" : 36280,
            "uri" : "data:application/octet-stream;base64,"
        }
    ]
}
