{
    "asset" : {
        "generator" : "Khronos glTF Blender I/O v1.6.16",
        "version" : "2.0"
    },
    "scene" : 0,
    "scenes" : [
        {
            "name" : "Scene",
            "nodes" : [
                0,
                1,
                2
            ]
        }
    ],
    "nodes" : [
        {
            "mesh" : 0,
            "name" : "building2"
        },
        {
            "mesh" : 1,
            "name" : "building2_cell",
            "translation" : [
                0,
                0.5283372402191162,
                0
            ]
        },
        {
            "mesh" : 2,
            "name" : "building2_cell.001",
            "translation" : [
                0,
                1.6543090343475342,
                0
            ]
        }
    ],
    "materials" : [
        {
            "doubleSided" : true,
            "name" : "Material.027",
            "pbrMetallicRoughness" : {
                "baseColorTexture" : {
                    "index" : 0
                },
                "metallicFactor" : 0,
                "roughnessFactor" : 0.5
            }
        },
        {
            "doubleSided" : true,
            "name" : "Material.034",
            "pbrMetallicRoughness" : {
                "baseColorTexture" : {
                    "index" : 1
                },
                "metallicFactor" : 0,
                "roughnessFactor" : 0.5
            }
        }
    ],
    "meshes" : [
        {
            "name" : "building_032_mesh",
            "primitives" : [
                {
                    "attributes" : {
                        "POSITION" : 0,
                        "NORMAL" : 1,
                        "TEXCOORD_0" : 2
                    },
                    "indices" : 3,
                    "material" : 0
                },
                {
                    "attributes" : {
                        "POSITION" : 4,
                        "NORMAL" : 5,
                        "TEXCOORD_0" : 6
                    },
                    "indices" : 7,
                    "material" : 1
                }
            ]
        },
        {
            "name" : "building2_cell.007",
            "primitives" : [
                {
                    "attributes" : {
                        "POSITION" : 8,
                        "NORMAL" : 9,
                        "TEXCOORD_0" : 10
                    },
                    "indices" : 11,
                    "material" : 0
                }
            ]
        },
        {
            "name" : "building2_cell.008",
            "primitives" : [
                {
                    "attributes" : {
                        "POSITION" : 12,
                        "NORMAL" : 13,
                        "TEXCOORD_0" : 14
                    },
                    "indices" : 15,
                    "material" : 0
                },
                {
                    "attributes" : {
                        "POSITION" : 16,
                        "NORMAL" : 17,
                        "TEXCOORD_0" : 18
                    },
                    "indices" : 19,
                    "material" : 1
                }
            ]
        }
    ],
    "textures" : [
        {
            "sampler" : 0,
            "source" : 0
        },
        {
            "sampler" : 0,
            "source" : 1
        }
    ],
    "images" : [
        {
            "bufferView" : 4,
            "mimeType" : "image/jpeg",
            "name" : "images_24"
        },
        {
            "bufferView" : 9,
            "mimeType" : "image/jpeg",
            "name" : "roof3"
        }
    ],
    "accessors" : [
        {
            "bufferView" : 0,
            "componentType" : 5126,
            "count" : 192,
            "max" : [
                1.3500094413757324,
                2.2500157356262207,
                0.7875055074691772
            ],
            "min" : [
                -1.3500094413757324,
                0,
                -0.7875055074691772
            ],
            "type" : "VEC3"
        },
        {
            "bufferView" : 1,
            "componentType" : 5126,
            "count" : 192,
            "type" : "VEC3"
        },
        {
            "bufferView" : 2,
            "componentType" : 5126,
            "count" : 192,
            "type" : "VEC2"
        },
        {
            "bufferView" : 3,
            "componentType" : 5123,
            "count" : 360,
            "type" : "SCALAR"
        },
        {
            "bufferView" : 5,
            "componentType" : 5126,
            "count" : 12,
            "max" : [
                1.3500094413757324,
                2.2500157356262207,
                0.7875055074691772
            ],
            "min" : [
                -1.3500094413757324,
                2.2500157356262207,
                -0.7875055074691772
            ],
            "type" : "VEC3"
        },
        {
            "bufferView" : 6,
            "componentType" : 5126,
            "count" : 12,
            "type" : "VEC3"
        },
        {
            "bufferView" : 7,
            "componentType" : 5126,
            "count" : 12,
            "type" : "VEC2"
        },
        {
            "bufferView" : 8,
            "componentType" : 5123,
            "count" : 30,
            "type" : "SCALAR"
        },
        {
            "bufferView" : 10,
            "componentType" : 5126,
            "count" : 60,
            "max" : [
                1.3500094413757324,
                1.0009428262710571,
                0.787505567073822
            ],
            "min" : [
                -1.3500094413757324,
                -0.5283372402191162,
                -0.7875054478645325
            ],
            "type" : "VEC3"
        },
        {
            "bufferView" : 11,
            "componentType" : 5126,
            "count" : 60,
            "type" : "VEC3"
        },
        {
            "bufferView" : 12,
            "componentType" : 5126,
            "count" : 60,
            "type" : "VEC2"
        },
        {
            "bufferView" : 13,
            "componentType" : 5123,
            "count" : 102,
            "type" : "SCALAR"
        },
        {
            "bufferView" : 14,
            "componentType" : 5126,
            "count" : 60,
            "max" : [
                1.3500094413757324,
                0.5957067012786865,
                0.7875054478645325
            ],
            "min" : [
                -1.3500094413757324,
                -1.0683249235153198,
                -0.787505567073822
            ],
            "type" : "VEC3"
        },
        {
            "bufferView" : 15,
            "componentType" : 5126,
            "count" : 60,
            "type" : "VEC3"
        },
        {
            "bufferView" : 16,
            "componentType" : 5126,
            "count" : 60,
            "type" : "VEC2"
        },
        {
            "bufferView" : 17,
            "componentType" : 5123,
            "count" : 102,
            "type" : "SCALAR"
        },
        {
            "bufferView" : 18,
            "componentType" : 5126,
            "count" : 12,
            "max" : [
                1.3500094413757324,
                0.5957067012786865,
                0.7875054478645325
            ],
            "min" : [
                -1.3500094413757324,
                0.5957067012786865,
                -0.787505567073822
            ],
            "type" : "VEC3"
        },
        {
            "bufferView" : 19,
            "componentType" : 5126,
            "count" : 12,
            "type" : "VEC3"
        },
        {
            "bufferView" : 20,
            "componentType" : 5126,
            "count" : 12,
            "type" : "VEC2"
        },
        {
            "bufferView" : 21,
            "componentType" : 5123,
            "count" : 30,
            "type" : "SCALAR"
        }
    ],
    "bufferViews" : [
        {
            "buffer" : 0,
            "byteLength" : 2304,
            "byteOffset" : 0
        },
        {
            "buffer" : 0,
            "byteLength" : 2304,
            "byteOffset" : 2304
        },
        {
            "buffer" : 0,
            "byteLength" : 1536,
            "byteOffset" : 4608
        },
        {
            "buffer" : 0,
            "byteLength" : 720,
            "byteOffset" : 6144
        },
        {
            "buffer" : 0,
            "byteLength" : 11876,
            "byteOffset" : 6864
        },
        {
            "buffer" : 0,
            "byteLength" : 144,
            "byteOffset" : 18740
        },
        {
            "buffer" : 0,
            "byteLength" : 144,
            "byteOffset" : 18884
        },
        {
            "buffer" : 0,
            "byteLength" : 96,
            "byteOffset" : 19028
        },
        {
            "buffer" : 0,
            "byteLength" : 60,
            "byteOffset" : 19124
        },
        {
            "buffer" : 0,
            "byteLength" : 6491,
            "byteOffset" : 19184
        },
        {
            "buffer" : 0,
            "byteLength" : 720,
            "byteOffset" : 25676
        },
        {
            "buffer" : 0,
            "byteLength" : 720,
            "byteOffset" : 26396
        },
        {
            "buffer" : 0,
            "byteLength" : 480,
            "byteOffset" : 27116
        },
        {
            "buffer" : 0,
            "byteLength" : 204,
            "byteOffset" : 27596
        },
        {
            "buffer" : 0,
            "byteLength" : 720,
            "byteOffset" : 27800
        },
        {
            "buffer" : 0,
            "byteLength" : 720,
            "byteOffset" : 28520
        },
        {
            "buffer" : 0,
            "byteLength" : 480,
            "byteOffset" : 29240
        },
        {
            "buffer" : 0,
            "byteLength" : 204,
            "byteOffset" : 29720
        },
        {
            "buffer" : 0,
            "byteLength" : 144,
            "byteOffset" : 29924
        },
        {
            "buffer" : 0,
            "byteLength" : 144,
            "byteOffset" : 30068
        },
        {
            "buffer" : 0,
            "byteLength" : 96,
            "byteOffset" : 30212
        },
        {
            "buffer" : 0,
            "byteLength" : 60,
            "byteOffset" : 30308
        }
    ],
    "samplers" : [
        {
            "magFilter" : 9729,
            "minFilter" : 9987
        }
    ],
    "buffers" : [
        {
            "byteLength" : 30368,
            "uri" : "data:application/octet-stream;base64,"
        }
    ]
}
