{
    "asset" : {
        "generator" : "Khronos glTF Blender I/O v1.6.16",
        "version" : "2.0"
    },
    "scene" : 0,
    "scenes" : [
        {
            "name" : "Scene",
            "nodes" : [
                0,
                1,
                2,
                3,
                4,
                5,
                6
            ]
        }
    ],
    "nodes" : [
        {
            "mesh" : 0,
            "name" : "building18"
        },
        {
            "mesh" : 1,
            "name" : "building18_cell",
            "translation" : [
                -0.578754186630249,
                0.9493573904037476,
                -0.015815258026123047
            ]
        },
        {
            "mesh" : 2,
            "name" : "building18_cell.001",
            "translation" : [
                0.18153166770935059,
                3.4656717777252197,
                0.10516583919525146
            ]
        },
        {
            "mesh" : 3,
            "name" : "building18_cell.002",
            "translation" : [
                -0.5098450779914856,
                2.574805498123169,
                0.07614552974700928
            ]
        },
        {
            "mesh" : 4,
            "name" : "building18_cell.003",
            "translation" : [
                0.06733036041259766,
                4.22876501083374,
                -0.3472599983215332
            ]
        },
        {
            "mesh" : 5,
            "name" : "building18_cell.004",
            "translation" : [
                0.7235538959503174,
                1.590609073638916,
                -0.6912896633148193
            ]
        },
        {
            "mesh" : 6,
            "name" : "building18_cell.005",
            "translation" : [
                -0.08819115161895752,
                1.63643217086792,
                0.7098661661148071
            ]
        }
    ],
    "materials" : [
        {
            "doubleSided" : true,
            "name" : "Material.019",
            "pbrMetallicRoughness" : {
                "baseColorTexture" : {
                    "index" : 0
                },
                "metallicFactor" : 0,
                "roughnessFactor" : 0.5
            }
        },
        {
            "doubleSided" : true,
            "name" : "Material.081",
            "pbrMetallicRoughness" : {
                "baseColorTexture" : {
                    "index" : 1
                },
                "metallicFactor" : 0,
                "roughnessFactor" : 0.5
            }
        }
    ],
    "meshes" : [
        {
            "name" : "building_024_mesh",
            "primitives" : [
                {
                    "attributes" : {
                        "POSITION" : 0,
                        "NORMAL" : 1,
                        "TEXCOORD_0" : 2
                    },
                    "indices" : 3,
                    "material" : 0
                },
                {
                    "attributes" : {
                        "POSITION" : 4,
                        "NORMAL" : 5,
                        "TEXCOORD_0" : 6
                    },
                    "indices" : 7,
                    "material" : 1
                }
            ]
        },
        {
            "name" : "building18_cell.006",
            "primitives" : [
                {
                    "attributes" : {
                        "POSITION" : 8,
                        "NORMAL" : 9,
                        "TEXCOORD_0" : 10
                    },
                    "indices" : 11,
                    "material" : 0
                }
            ]
        },
        {
            "name" : "building18_cell.007",
            "primitives" : [
                {
                    "attributes" : {
                        "POSITION" : 12,
                        "NORMAL" : 13,
                        "TEXCOORD_0" : 14
                    },
                    "indices" : 15,
                    "material" : 0
                },
                {
                    "attributes" : {
                        "POSITION" : 16,
                        "NORMAL" : 17,
                        "TEXCOORD_0" : 18
                    },
                    "indices" : 19,
                    "material" : 1
                }
            ]
        },
        {
            "name" : "building18_cell.001",
            "primitives" : [
                {
                    "attributes" : {
                        "POSITION" : 20,
                        "NORMAL" : 21,
                        "TEXCOORD_0" : 22
                    },
                    "indices" : 23,
                    "material" : 0
                }
            ]
        },
        {
            "name" : "building18_cell.002",
            "primitives" : [
                {
                    "attributes" : {
                        "POSITION" : 24,
                        "NORMAL" : 25,
                        "TEXCOORD_0" : 26
                    },
                    "indices" : 27,
                    "material" : 0
                },
                {
                    "attributes" : {
                        "POSITION" : 28,
                        "NORMAL" : 29,
                        "TEXCOORD_0" : 30
                    },
                    "indices" : 31,
                    "material" : 1
                }
            ]
        },
        {
            "name" : "building18_cell.003",
            "primitives" : [
                {
                    "attributes" : {
                        "POSITION" : 32,
                        "NORMAL" : 33,
                        "TEXCOORD_0" : 34
                    },
                    "indices" : 35,
                    "material" : 0
                }
            ]
        },
        {
            "name" : "building18_cell.004",
            "primitives" : [
                {
                    "attributes" : {
                        "POSITION" : 36,
                        "NORMAL" : 37,
                        "TEXCOORD_0" : 38
                    },
                    "indices" : 39,
                    "material" : 0
                }
            ]
        }
    ],
    "textures" : [
        {
            "sampler" : 0,
            "source" : 0
        },
        {
            "sampler" : 0,
            "source" : 1
        }
    ],
    "images" : [
        {
            "bufferView" : 4,
            "mimeType" : "image/jpeg",
            "name" : "f13bf40efcab60e4cdabd13d4c81856a"
        },
        {
            "bufferView" : 9,
            "mimeType" : "image/jpeg",
            "name" : "roof3"
        }
    ],
    "accessors" : [
        {
            "bufferView" : 0,
            "componentType" : 5126,
            "count" : 64,
            "max" : [
                1.0125070810317993,
                4.725032806396484,
                1.0125070810317993
            ],
            "min" : [
                -1.0125070810317993,
                0,
                -1.0125070810317993
            ],
            "type" : "VEC3"
        },
        {
            "bufferView" : 1,
            "componentType" : 5126,
            "count" : 64,
            "type" : "VEC3"
        },
        {
            "bufferView" : 2,
            "componentType" : 5126,
            "count" : 64,
            "type" : "VEC2"
        },
        {
            "bufferView" : 3,
            "componentType" : 5123,
            "count" : 168,
            "type" : "SCALAR"
        },
        {
            "bufferView" : 5,
            "componentType" : 5126,
            "count" : 4,
            "max" : [
                1.0125070810317993,
                4.725032806396484,
                1.0125070810317993
            ],
            "min" : [
                -1.0125070810317993,
                4.725032806396484,
                -1.0125070810317993
            ],
            "type" : "VEC3"
        },
        {
            "bufferView" : 6,
            "componentType" : 5126,
            "count" : 4,
            "type" : "VEC3"
        },
        {
            "bufferView" : 7,
            "componentType" : 5126,
            "count" : 4,
            "type" : "VEC2"
        },
        {
            "bufferView" : 8,
            "componentType" : 5123,
            "count" : 6,
            "type" : "SCALAR"
        },
        {
            "bufferView" : 10,
            "componentType" : 5126,
            "count" : 74,
            "max" : [
                0.9322069883346558,
                0.7376155853271484,
                1.0785776376724243
            ],
            "min" : [
                -0.4841260612010956,
                -0.9997467994689941,
                -1.0470566749572754
            ],
            "type" : "VEC3"
        },
        {
            "bufferView" : 11,
            "componentType" : 5126,
            "count" : 74,
            "type" : "VEC3"
        },
        {
            "bufferView" : 12,
            "componentType" : 5126,
            "count" : 74,
            "type" : "VEC2"
        },
        {
            "bufferView" : 13,
            "componentType" : 5123,
            "count" : 114,
            "type" : "SCALAR"
        },
        {
            "bufferView" : 14,
            "componentType" : 5126,
            "count" : 68,
            "max" : [
                0.8309754133224487,
                1.2593611478805542,
                0.9073412418365479
            ],
            "min" : [
                -1.19403874874115,
                -0.7649652361869812,
                -1.1176729202270508
            ],
            "type" : "VEC3"
        },
        {
            "bufferView" : 15,
            "componentType" : 5126,
            "count" : 68,
            "type" : "VEC3"
        },
        {
            "bufferView" : 16,
            "componentType" : 5126,
            "count" : 68,
            "type" : "VEC2"
        },
        {
            "bufferView" : 17,
            "componentType" : 5123,
            "count" : 126,
            "type" : "SCALAR"
        },
        {
            "bufferView" : 18,
            "componentType" : 5126,
            "count" : 4,
            "max" : [
                0.8309754133224487,
                1.2593611478805542,
                0.9073412418365479
            ],
            "min" : [
                -0.7429918050765991,
                1.2593611478805542,
                -0.6662672758102417
            ],
            "type" : "VEC3"
        },
        {
            "bufferView" : 19,
            "componentType" : 5126,
            "count" : 4,
            "type" : "VEC3"
        },
        {
            "bufferView" : 20,
            "componentType" : 5126,
            "count" : 4,
            "type" : "VEC2"
        },
        {
            "bufferView" : 21,
            "componentType" : 5123,
            "count" : 6,
            "type" : "SCALAR"
        },
        {
            "bufferView" : 22,
            "componentType" : 5126,
            "count" : 56,
            "max" : [
                1.4088432788848877,
                1.1371021270751953,
                0.93636155128479
            ],
            "min" : [
                -0.5026620030403137,
                -0.8864368200302124,
                -1.0886526107788086
            ],
            "type" : "VEC3"
        },
        {
            "bufferView" : 23,
            "componentType" : 5126,
            "count" : 56,
            "type" : "VEC3"
        },
        {
            "bufferView" : 24,
            "componentType" : 5126,
            "count" : 56,
            "type" : "VEC2"
        },
        {
            "bufferView" : 25,
            "componentType" : 5123,
            "count" : 102,
            "type" : "SCALAR"
        },
        {
            "bufferView" : 26,
            "componentType" : 5126,
            "count" : 33,
            "max" : [
                0.9451767206192017,
                0.4962675869464874,
                1.3597670793533325
            ],
            "min" : [
                -1.079837441444397,
                -0.5153170824050903,
                -0.6652470827102661
            ],
            "type" : "VEC3"
        },
        {
            "bufferView" : 27,
            "componentType" : 5126,
            "count" : 33,
            "type" : "VEC3"
        },
        {
            "bufferView" : 28,
            "componentType" : 5126,
            "count" : 33,
            "type" : "VEC2"
        },
        {
            "bufferView" : 29,
            "componentType" : 5123,
            "count" : 57,
            "type" : "SCALAR"
        },
        {
            "bufferView" : 30,
            "componentType" : 5126,
            "count" : 5,
            "max" : [
                0.9451767206192017,
                0.4962675869464874,
                1.3597670793533325
            ],
            "min" : [
                -1.079837441444397,
                0.4962675869464874,
                -0.6652470827102661
            ],
            "type" : "VEC3"
        },
        {
            "bufferView" : 31,
            "componentType" : 5126,
            "count" : 5,
            "type" : "VEC3"
        },
        {
            "bufferView" : 32,
            "componentType" : 5126,
            "count" : 5,
            "type" : "VEC2"
        },
        {
            "bufferView" : 33,
            "componentType" : 5123,
            "count" : 9,
            "type" : "SCALAR"
        },
        {
            "bufferView" : 34,
            "componentType" : 5126,
            "count" : 9,
            "max" : [
                0.28895318508148193,
                1.7830173969268799,
                1.2530263662338257
            ],
            "min" : [
                -0.947449803352356,
                -1.590609073638916,
                -0.32121744751930237
            ],
            "type" : "VEC3"
        },
        {
            "bufferView" : 35,
            "componentType" : 5126,
            "count" : 9,
            "type" : "VEC3"
        },
        {
            "bufferView" : 36,
            "componentType" : 5126,
            "count" : 9,
            "type" : "VEC2"
        },
        {
            "bufferView" : 37,
            "componentType" : 5123,
            "count" : 15,
            "type" : "SCALAR"
        },
        {
            "bufferView" : 38,
            "componentType" : 5126,
            "count" : 98,
            "max" : [
                1.1511693000793457,
                1.0626274347305298,
                0.35293805599212646
            ],
            "min" : [
                -0.9741575717926025,
                -1.6868910789489746,
                -1.045933723449707
            ],
            "type" : "VEC3"
        },
        {
            "bufferView" : 39,
            "componentType" : 5126,
            "count" : 98,
            "type" : "VEC3"
        },
        {
            "bufferView" : 40,
            "componentType" : 5126,
            "count" : 98,
            "type" : "VEC2"
        },
        {
            "bufferView" : 41,
            "componentType" : 5123,
            "count" : 156,
            "type" : "SCALAR"
        }
    ],
    "bufferViews" : [
        {
            "buffer" : 0,
            "byteLength" : 768,
            "byteOffset" : 0
        },
        {
            "buffer" : 0,
            "byteLength" : 768,
            "byteOffset" : 768
        },
        {
            "buffer" : 0,
            "byteLength" : 512,
            "byteOffset" : 1536
        },
        {
            "buffer" : 0,
            "byteLength" : 336,
            "byteOffset" : 2048
        },
        {
            "buffer" : 0,
            "byteLength" : 6307,
            "byteOffset" : 2384
        },
        {
            "buffer" : 0,
            "byteLength" : 48,
            "byteOffset" : 8692
        },
        {
            "buffer" : 0,
            "byteLength" : 48,
            "byteOffset" : 8740
        },
        {
            "buffer" : 0,
            "byteLength" : 32,
            "byteOffset" : 8788
        },
        {
            "buffer" : 0,
            "byteLength" : 12,
            "byteOffset" : 8820
        },
        {
            "buffer" : 0,
            "byteLength" : 6491,
            "byteOffset" : 8832
        },
        {
            "buffer" : 0,
            "byteLength" : 888,
            "byteOffset" : 15324
        },
        {
            "buffer" : 0,
            "byteLength" : 888,
            "byteOffset" : 16212
        },
        {
            "buffer" : 0,
            "byteLength" : 592,
            "byteOffset" : 17100
        },
        {
            "buffer" : 0,
            "byteLength" : 228,
            "byteOffset" : 17692
        },
        {
            "buffer" : 0,
            "byteLength" : 816,
            "byteOffset" : 17920
        },
        {
            "buffer" : 0,
            "byteLength" : 816,
            "byteOffset" : 18736
        },
        {
            "buffer" : 0,
            "byteLength" : 544,
            "byteOffset" : 19552
        },
        {
            "buffer" : 0,
            "byteLength" : 252,
            "byteOffset" : 20096
        },
        {
            "buffer" : 0,
            "byteLength" : 48,
            "byteOffset" : 20348
        },
        {
            "buffer" : 0,
            "byteLength" : 48,
            "byteOffset" : 20396
        },
        {
            "buffer" : 0,
            "byteLength" : 32,
            "byteOffset" : 20444
        },
        {
            "buffer" : 0,
            "byteLength" : 12,
            "byteOffset" : 20476
        },
        {
            "buffer" : 0,
            "byteLength" : 672,
            "byteOffset" : 20488
        },
        {
            "buffer" : 0,
            "byteLength" : 672,
            "byteOffset" : 21160
        },
        {
            "buffer" : 0,
            "byteLength" : 448,
            "byteOffset" : 21832
        },
        {
            "buffer" : 0,
            "byteLength" : 204,
            "byteOffset" : 22280
        },
        {
            "buffer" : 0,
            "byteLength" : 396,
            "byteOffset" : 22484
        },
        {
            "buffer" : 0,
            "byteLength" : 396,
            "byteOffset" : 22880
        },
        {
            "buffer" : 0,
            "byteLength" : 264,
            "byteOffset" : 23276
        },
        {
            "buffer" : 0,
            "byteLength" : 114,
            "byteOffset" : 23540
        },
        {
            "buffer" : 0,
            "byteLength" : 60,
            "byteOffset" : 23656
        },
        {
            "buffer" : 0,
            "byteLength" : 60,
            "byteOffset" : 23716
        },
        {
            "buffer" : 0,
            "byteLength" : 40,
            "byteOffset" : 23776
        },
        {
            "buffer" : 0,
            "byteLength" : 18,
            "byteOffset" : 23816
        },
        {
            "buffer" : 0,
            "byteLength" : 108,
            "byteOffset" : 23836
        },
        {
            "buffer" : 0,
            "byteLength" : 108,
            "byteOffset" : 23944
        },
        {
            "buffer" : 0,
            "byteLength" : 72,
            "byteOffset" : 24052
        },
        {
            "buffer" : 0,
            "byteLength" : 30,
            "byteOffset" : 24124
        },
        {
            "buffer" : 0,
            "byteLength" : 1176,
            "byteOffset" : 24156
        },
        {
            "buffer" : 0,
            "byteLength" : 1176,
            "byteOffset" : 25332
        },
        {
            "buffer" : 0,
            "byteLength" : 784,
            "byteOffset" : 26508
        },
        {
            "buffer" : 0,
            "byteLength" : 312,
            "byteOffset" : 27292
        }
    ],
    "samplers" : [
        {
            "magFilter" : 9729,
            "minFilter" : 9987
        }
    ],
    "buffers" : [
        {
            "byteLength" : 27604,
            "uri" : "data:application/octet-stream;base64,"
        }
    ]
}
