{
    "asset" : {
        "generator" : "Khronos glTF Blender I/O v1.6.16",
        "version" : "2.0"
    },
    "scene" : 0,
    "scenes" : [
        {
            "name" : "Scene",
            "nodes" : [
                0
            ]
        }
    ],
    "nodes" : [
        {
            "mesh" : 0,
            "name" : "building43"
        }
    ],
    "materials" : [
        {
            "doubleSided" : true,
            "name" : "Material.043",
            "pbrMetallicRoughness" : {
                "baseColorTexture" : {
                    "index" : 0
                },
                "metallicFactor" : 0,
                "roughnessFactor" : 0.5
            }
        },
        {
            "doubleSided" : true,
            "name" : "Material.109",
            "pbrMetallicRoughness" : {
                "baseColorTexture" : {
                    "index" : 1
                },
                "metallicFactor" : 0,
                "roughnessFactor" : 0.5
            }
        }
    ],
    "meshes" : [
        {
            "name" : "building_002_mesh.001",
            "primitives" : [
                {
                    "attributes" : {
                        "POSITION" : 0,
                        "NORMAL" : 1,
                        "TEXCOORD_0" : 2
                    },
                    "indices" : 3,
                    "material" : 0
                },
                {
                    "attributes" : {
                        "POSITION" : 4,
                        "NORMAL" : 5,
                        "TEXCOORD_0" : 6
                    },
                    "indices" : 7,
                    "material" : 1
                }
            ]
        }
    ],
    "textures" : [
        {
            "sampler" : 0,
            "source" : 0
        },
        {
            "sampler" : 0,
            "source" : 1
        }
    ],
    "images" : [
        {
            "bufferView" : 4,
            "mimeType" : "image/jpeg",
            "name" : "TexturesCom_HighRiseResidential0098_1_seamless_S"
        },
        {
            "bufferView" : 9,
            "mimeType" : "image/jpeg",
            "name" : "roof3"
        }
    ],
    "accessors" : [
        {
            "bufferView" : 0,
            "componentType" : 5126,
            "count" : 1725,
            "max" : [
                1.1227879524230957,
                4.8000335693359375,
                0.7500052452087402
            ],
            "min" : [
                -1.1227879524230957,
                0,
                -0.7500052452087402
            ],
            "type" : "VEC3"
        },
        {
            "bufferView" : 1,
            "componentType" : 5126,
            "count" : 1725,
            "type" : "VEC3"
        },
        {
            "bufferView" : 2,
            "componentType" : 5126,
            "count" : 1725,
            "type" : "VEC2"
        },
        {
            "bufferView" : 3,
            "componentType" : 5123,
            "count" : 2400,
            "type" : "SCALAR"
        },
        {
            "bufferView" : 5,
            "componentType" : 5126,
            "count" : 123,
            "max" : [
                1.1227879524230957,
                4.8000335693359375,
                0.7500052452087402
            ],
            "min" : [
                -1.1227879524230957,
                4.8000335693359375,
                -0.7500052452087402
            ],
            "type" : "VEC3"
        },
        {
            "bufferView" : 6,
            "componentType" : 5126,
            "count" : 123,
            "type" : "VEC3"
        },
        {
            "bufferView" : 7,
            "componentType" : 5126,
            "count" : 123,
            "type" : "VEC2"
        },
        {
            "bufferView" : 8,
            "componentType" : 5123,
            "count" : 144,
            "type" : "SCALAR"
        }
    ],
    "bufferViews" : [
        {
            "buffer" : 0,
            "byteLength" : 20700,
            "byteOffset" : 0
        },
        {
            "buffer" : 0,
            "byteLength" : 20700,
            "byteOffset" : 20700
        },
        {
            "buffer" : 0,
            "byteLength" : 13800,
            "byteOffset" : 41400
        },
        {
            "buffer" : 0,
            "byteLength" : 4800,
            "byteOffset" : 55200
        },
        {
            "buffer" : 0,
            "byteLength" : 1044256,
            "byteOffset" : 60000
        },
        {
            "buffer" : 0,
            "byteLength" : 1476,
            "byteOffset" : 1104256
        },
        {
            "buffer" : 0,
            "byteLength" : 1476,
            "byteOffset" : 1105732
        },
        {
            "buffer" : 0,
            "byteLength" : 984,
            "byteOffset" : 1107208
        },
        {
            "buffer" : 0,
            "byteLength" : 288,
            "byteOffset" : 1108192
        },
        {
            "buffer" : 0,
            "byteLength" : 6491,
            "byteOffset" : 1108480
        }
    ],
    "samplers" : [
        {
            "magFilter" : 9729,
            "minFilter" : 9987
        }
    ],
    "buffers" : [
        {
            "byteLength" : 1114972,
            "uri" : "data:application/octet-stream;base64,"
        }
    ]
}
