{
    "asset" : {
        "generator" : "Khronos glTF Blender I/O v1.6.16",
        "version" : "2.0"
    },
    "scene" : 0,
    "scenes" : [
        {
            "name" : "Scene",
            "nodes" : [
                0,
                1,
                2,
                3
            ]
        }
    ],
    "nodes" : [
        {
            "mesh" : 0,
            "name" : "building23_1"
        },
        {
            "mesh" : 1,
            "name" : "building23_1_cell",
            "translation" : [
                0.5966259241104126,
                0.7869947552680969,
                0
            ]
        },
        {
            "mesh" : 2,
            "name" : "building23_1_cell.001",
            "translation" : [
                -0.017896294593811035,
                3.2635812759399414,
                0
            ]
        },
        {
            "mesh" : 3,
            "name" : "building23_1_cell.002",
            "translation" : [
                -0.5292120575904846,
                1.4335949420928955,
                0
            ]
        }
    ],
    "materials" : [
        {
            "doubleSided" : true,
            "name" : "Material.021",
            "pbrMetallicRoughness" : {
                "baseColorTexture" : {
                    "index" : 0
                },
                "metallicFactor" : 0,
                "roughnessFactor" : 0.5
            }
        },
        {
            "doubleSided" : true,
            "name" : "Material.086",
            "pbrMetallicRoughness" : {
                "baseColorTexture" : {
                    "index" : 1
                },
                "metallicFactor" : 0,
                "roughnessFactor" : 0.5
            }
        }
    ],
    "meshes" : [
        {
            "name" : "building_026_mesh.001",
            "primitives" : [
                {
                    "attributes" : {
                        "POSITION" : 0,
                        "NORMAL" : 1,
                        "TEXCOORD_0" : 2
                    },
                    "indices" : 3,
                    "material" : 0
                },
                {
                    "attributes" : {
                        "POSITION" : 4,
                        "NORMAL" : 5,
                        "TEXCOORD_0" : 6
                    },
                    "indices" : 7,
                    "material" : 1
                }
            ]
        },
        {
            "name" : "building23_1_cell.009",
            "primitives" : [
                {
                    "attributes" : {
                        "POSITION" : 8,
                        "NORMAL" : 9,
                        "TEXCOORD_0" : 10
                    },
                    "indices" : 11,
                    "material" : 0
                }
            ]
        },
        {
            "name" : "building23_1_cell.010",
            "primitives" : [
                {
                    "attributes" : {
                        "POSITION" : 12,
                        "NORMAL" : 13,
                        "TEXCOORD_0" : 14
                    },
                    "indices" : 15,
                    "material" : 0
                },
                {
                    "attributes" : {
                        "POSITION" : 16,
                        "NORMAL" : 17,
                        "TEXCOORD_0" : 18
                    },
                    "indices" : 19,
                    "material" : 1
                }
            ]
        },
        {
            "name" : "building23_1_cell.005",
            "primitives" : [
                {
                    "attributes" : {
                        "POSITION" : 20,
                        "NORMAL" : 21,
                        "TEXCOORD_0" : 22
                    },
                    "indices" : 23,
                    "material" : 0
                }
            ]
        }
    ],
    "textures" : [
        {
            "sampler" : 0,
            "source" : 0
        },
        {
            "sampler" : 0,
            "source" : 1
        }
    ],
    "images" : [
        {
            "bufferView" : 4,
            "mimeType" : "image/jpeg",
            "name" : "images_18"
        },
        {
            "bufferView" : 9,
            "mimeType" : "image/jpeg",
            "name" : "roof3"
        }
    ],
    "accessors" : [
        {
            "bufferView" : 0,
            "componentType" : 5126,
            "count" : 94,
            "max" : [
                1.1250078678131104,
                4.500031471252441,
                1.1250078678131104
            ],
            "min" : [
                -1.1250078678131104,
                0,
                -1.1250078678131104
            ],
            "type" : "VEC3"
        },
        {
            "bufferView" : 1,
            "componentType" : 5126,
            "count" : 94,
            "type" : "VEC3"
        },
        {
            "bufferView" : 2,
            "componentType" : 5126,
            "count" : 94,
            "type" : "VEC2"
        },
        {
            "bufferView" : 3,
            "componentType" : 5123,
            "count" : 240,
            "type" : "SCALAR"
        },
        {
            "bufferView" : 5,
            "componentType" : 5126,
            "count" : 4,
            "max" : [
                1.1250078678131104,
                4.500031471252441,
                1.1250078678131104
            ],
            "min" : [
                -1.1250078678131104,
                4.500031471252441,
                -1.1250078678131104
            ],
            "type" : "VEC3"
        },
        {
            "bufferView" : 6,
            "componentType" : 5126,
            "count" : 4,
            "type" : "VEC3"
        },
        {
            "bufferView" : 7,
            "componentType" : 5126,
            "count" : 4,
            "type" : "VEC2"
        },
        {
            "bufferView" : 8,
            "componentType" : 5123,
            "count" : 6,
            "type" : "SCALAR"
        },
        {
            "bufferView" : 10,
            "componentType" : 5126,
            "count" : 12,
            "max" : [
                0.5283819437026978,
                0.7873072028160095,
                1.1250078678131104
            ],
            "min" : [
                -0.6858294010162354,
                -0.7869947552680969,
                -1.1250078678131104
            ],
            "type" : "VEC3"
        },
        {
            "bufferView" : 11,
            "componentType" : 5126,
            "count" : 12,
            "type" : "VEC3"
        },
        {
            "bufferView" : 12,
            "componentType" : 5126,
            "count" : 12,
            "type" : "VEC2"
        },
        {
            "bufferView" : 13,
            "componentType" : 5123,
            "count" : 18,
            "type" : "SCALAR"
        },
        {
            "bufferView" : 14,
            "componentType" : 5126,
            "count" : 26,
            "max" : [
                1.1429041624069214,
                1.2364503145217896,
                1.1250078678131104
            ],
            "min" : [
                -1.1071115732192993,
                -1.6877551078796387,
                -1.1250078678131104
            ],
            "type" : "VEC3"
        },
        {
            "bufferView" : 15,
            "componentType" : 5126,
            "count" : 26,
            "type" : "VEC3"
        },
        {
            "bufferView" : 16,
            "componentType" : 5126,
            "count" : 26,
            "type" : "VEC2"
        },
        {
            "bufferView" : 17,
            "componentType" : 5123,
            "count" : 42,
            "type" : "SCALAR"
        },
        {
            "bufferView" : 18,
            "componentType" : 5126,
            "count" : 4,
            "max" : [
                1.1429041624069214,
                1.2364503145217896,
                1.1250078678131104
            ],
            "min" : [
                -1.1071115732192993,
                1.2364503145217896,
                -1.1250078678131104
            ],
            "type" : "VEC3"
        },
        {
            "bufferView" : 19,
            "componentType" : 5126,
            "count" : 4,
            "type" : "VEC3"
        },
        {
            "bufferView" : 20,
            "componentType" : 5126,
            "count" : 4,
            "type" : "VEC2"
        },
        {
            "bufferView" : 21,
            "componentType" : 5123,
            "count" : 6,
            "type" : "SCALAR"
        },
        {
            "bufferView" : 22,
            "componentType" : 5126,
            "count" : 12,
            "max" : [
                0.7534413933753967,
                2.726886749267578,
                1.1250078678131104
            ],
            "min" : [
                -0.5957958102226257,
                -1.4335949420928955,
                -1.1250078678131104
            ],
            "type" : "VEC3"
        },
        {
            "bufferView" : 23,
            "componentType" : 5126,
            "count" : 12,
            "type" : "VEC3"
        },
        {
            "bufferView" : 24,
            "componentType" : 5126,
            "count" : 12,
            "type" : "VEC2"
        },
        {
            "bufferView" : 25,
            "componentType" : 5123,
            "count" : 18,
            "type" : "SCALAR"
        }
    ],
    "bufferViews" : [
        {
            "buffer" : 0,
            "byteLength" : 1128,
            "byteOffset" : 0
        },
        {
            "buffer" : 0,
            "byteLength" : 1128,
            "byteOffset" : 1128
        },
        {
            "buffer" : 0,
            "byteLength" : 752,
            "byteOffset" : 2256
        },
        {
            "buffer" : 0,
            "byteLength" : 480,
            "byteOffset" : 3008
        },
        {
            "buffer" : 0,
            "byteLength" : 9436,
            "byteOffset" : 3488
        },
        {
            "buffer" : 0,
            "byteLength" : 48,
            "byteOffset" : 12924
        },
        {
            "buffer" : 0,
            "byteLength" : 48,
            "byteOffset" : 12972
        },
        {
            "buffer" : 0,
            "byteLength" : 32,
            "byteOffset" : 13020
        },
        {
            "buffer" : 0,
            "byteLength" : 12,
            "byteOffset" : 13052
        },
        {
            "buffer" : 0,
            "byteLength" : 6491,
            "byteOffset" : 13064
        },
        {
            "buffer" : 0,
            "byteLength" : 144,
            "byteOffset" : 19556
        },
        {
            "buffer" : 0,
            "byteLength" : 144,
            "byteOffset" : 19700
        },
        {
            "buffer" : 0,
            "byteLength" : 96,
            "byteOffset" : 19844
        },
        {
            "buffer" : 0,
            "byteLength" : 36,
            "byteOffset" : 19940
        },
        {
            "buffer" : 0,
            "byteLength" : 312,
            "byteOffset" : 19976
        },
        {
            "buffer" : 0,
            "byteLength" : 312,
            "byteOffset" : 20288
        },
        {
            "buffer" : 0,
            "byteLength" : 208,
            "byteOffset" : 20600
        },
        {
            "buffer" : 0,
            "byteLength" : 84,
            "byteOffset" : 20808
        },
        {
            "buffer" : 0,
            "byteLength" : 48,
            "byteOffset" : 20892
        },
        {
            "buffer" : 0,
            "byteLength" : 48,
            "byteOffset" : 20940
        },
        {
            "buffer" : 0,
            "byteLength" : 32,
            "byteOffset" : 20988
        },
        {
            "buffer" : 0,
            "byteLength" : 12,
            "byteOffset" : 21020
        },
        {
            "buffer" : 0,
            "byteLength" : 144,
            "byteOffset" : 21032
        },
        {
            "buffer" : 0,
            "byteLength" : 144,
            "byteOffset" : 21176
        },
        {
            "buffer" : 0,
            "byteLength" : 96,
            "byteOffset" : 21320
        },
        {
            "buffer" : 0,
            "byteLength" : 36,
            "byteOffset" : 21416
        }
    ],
    "samplers" : [
        {
            "magFilter" : 9729,
            "minFilter" : 9987
        }
    ],
    "buffers" : [
        {
            "byteLength" : 21452,
            "uri" : "data:application/octet-stream;base64,"
        }
    ]
}
