{
    "asset" : {
        "generator" : "Khronos glTF Blender I/O v1.6.16",
        "version" : "2.0"
    },
    "scene" : 0,
    "scenes" : [
        {
            "name" : "Scene",
            "nodes" : [
                0,
                1,
                2,
                3,
                4,
                5
            ]
        }
    ],
    "nodes" : [
        {
            "mesh" : 0,
            "name" : "building2"
        },
        {
            "mesh" : 1,
            "name" : "building2_cell",
            "translation" : [
                -0.5440530776977539,
                0.3013116419315338,
                -0.0019317269325256348
            ]
        },
        {
            "mesh" : 2,
            "name" : "building2_cell.001",
            "translation" : [
                -0.8841248750686646,
                1.2463723421096802,
                0.4244975447654724
            ]
        },
        {
            "mesh" : 3,
            "name" : "building2_cell.002",
            "translation" : [
                0.8782215714454651,
                0.9182947874069214,
                -0.18167448043823242
            ]
        },
        {
            "mesh" : 4,
            "name" : "building2_cell.003",
            "translation" : [
                0.779055655002594,
                1.1841869354248047,
                0.5048040151596069
            ]
        },
        {
            "mesh" : 5,
            "name" : "building2_cell.004",
            "translation" : [
                -0.7396587133407593,
                1.5197868347167969,
                -0.526360034942627
            ]
        }
    ],
    "materials" : [
        {
            "doubleSided" : true,
            "name" : "Material.027",
            "pbrMetallicRoughness" : {
                "baseColorTexture" : {
                    "index" : 0
                },
                "metallicFactor" : 0,
                "roughnessFactor" : 0.5
            }
        },
        {
            "doubleSided" : true,
            "name" : "Material.034",
            "pbrMetallicRoughness" : {
                "baseColorTexture" : {
                    "index" : 1
                },
                "metallicFactor" : 0,
                "roughnessFactor" : 0.5
            }
        }
    ],
    "meshes" : [
        {
            "name" : "building_032_mesh",
            "primitives" : [
                {
                    "attributes" : {
                        "POSITION" : 0,
                        "NORMAL" : 1,
                        "TEXCOORD_0" : 2
                    },
                    "indices" : 3,
                    "material" : 0
                },
                {
                    "attributes" : {
                        "POSITION" : 4,
                        "NORMAL" : 5,
                        "TEXCOORD_0" : 6
                    },
                    "indices" : 7,
                    "material" : 1
                }
            ]
        },
        {
            "name" : "building2_cell.005",
            "primitives" : [
                {
                    "attributes" : {
                        "POSITION" : 8,
                        "NORMAL" : 9,
                        "TEXCOORD_0" : 10
                    },
                    "indices" : 11,
                    "material" : 0
                }
            ]
        },
        {
            "name" : "building2_cell.006",
            "primitives" : [
                {
                    "attributes" : {
                        "POSITION" : 12,
                        "NORMAL" : 13,
                        "TEXCOORD_0" : 14
                    },
                    "indices" : 15,
                    "material" : 0
                },
                {
                    "attributes" : {
                        "POSITION" : 16,
                        "NORMAL" : 17,
                        "TEXCOORD_0" : 18
                    },
                    "indices" : 19,
                    "material" : 1
                }
            ]
        },
        {
            "name" : "building2_cell.001",
            "primitives" : [
                {
                    "attributes" : {
                        "POSITION" : 20,
                        "NORMAL" : 21,
                        "TEXCOORD_0" : 22
                    },
                    "indices" : 23,
                    "material" : 0
                },
                {
                    "attributes" : {
                        "POSITION" : 24,
                        "NORMAL" : 25,
                        "TEXCOORD_0" : 26
                    },
                    "indices" : 27,
                    "material" : 1
                }
            ]
        },
        {
            "name" : "building2_cell.002",
            "primitives" : [
                {
                    "attributes" : {
                        "POSITION" : 28,
                        "NORMAL" : 29,
                        "TEXCOORD_0" : 30
                    },
                    "indices" : 31,
                    "material" : 0
                },
                {
                    "attributes" : {
                        "POSITION" : 32,
                        "NORMAL" : 33,
                        "TEXCOORD_0" : 34
                    },
                    "indices" : 35,
                    "material" : 1
                }
            ]
        },
        {
            "name" : "building2_cell.003",
            "primitives" : [
                {
                    "attributes" : {
                        "POSITION" : 36,
                        "NORMAL" : 37,
                        "TEXCOORD_0" : 38
                    },
                    "indices" : 39,
                    "material" : 0
                },
                {
                    "attributes" : {
                        "POSITION" : 40,
                        "NORMAL" : 41,
                        "TEXCOORD_0" : 42
                    },
                    "indices" : 43,
                    "material" : 1
                }
            ]
        }
    ],
    "textures" : [
        {
            "sampler" : 0,
            "source" : 0
        },
        {
            "sampler" : 0,
            "source" : 1
        }
    ],
    "images" : [
        {
            "bufferView" : 4,
            "mimeType" : "image/jpeg",
            "name" : "images_24"
        },
        {
            "bufferView" : 9,
            "mimeType" : "image/jpeg",
            "name" : "roof3"
        }
    ],
    "accessors" : [
        {
            "bufferView" : 0,
            "componentType" : 5126,
            "count" : 192,
            "max" : [
                1.3500094413757324,
                2.2500157356262207,
                0.7875055074691772
            ],
            "min" : [
                -1.3500094413757324,
                0,
                -0.7875055074691772
            ],
            "type" : "VEC3"
        },
        {
            "bufferView" : 1,
            "componentType" : 5126,
            "count" : 192,
            "type" : "VEC3"
        },
        {
            "bufferView" : 2,
            "componentType" : 5126,
            "count" : 192,
            "type" : "VEC2"
        },
        {
            "bufferView" : 3,
            "componentType" : 5123,
            "count" : 360,
            "type" : "SCALAR"
        },
        {
            "bufferView" : 5,
            "componentType" : 5126,
            "count" : 12,
            "max" : [
                1.3500094413757324,
                2.2500157356262207,
                0.7875055074691772
            ],
            "min" : [
                -1.3500094413757324,
                2.2500157356262207,
                -0.7875055074691772
            ],
            "type" : "VEC3"
        },
        {
            "bufferView" : 6,
            "componentType" : 5126,
            "count" : 12,
            "type" : "VEC3"
        },
        {
            "bufferView" : 7,
            "componentType" : 5126,
            "count" : 12,
            "type" : "VEC2"
        },
        {
            "bufferView" : 8,
            "componentType" : 5123,
            "count" : 30,
            "type" : "SCALAR"
        },
        {
            "bufferView" : 10,
            "componentType" : 5126,
            "count" : 86,
            "max" : [
                1.3745431900024414,
                0.7740317583084106,
                0.8399356007575989
            ],
            "min" : [
                -0.8564372062683105,
                -0.351794570684433,
                -0.835943877696991
            ],
            "type" : "VEC3"
        },
        {
            "bufferView" : 11,
            "componentType" : 5126,
            "count" : 86,
            "type" : "VEC3"
        },
        {
            "bufferView" : 12,
            "componentType" : 5126,
            "count" : 86,
            "type" : "VEC2"
        },
        {
            "bufferView" : 13,
            "componentType" : 5123,
            "count" : 144,
            "type" : "SCALAR"
        },
        {
            "bufferView" : 14,
            "componentType" : 5126,
            "count" : 18,
            "max" : [
                1.2955878973007202,
                1.0036433935165405,
                0.36300796270370483
            ],
            "min" : [
                -0.46588456630706787,
                -1.2463723421096802,
                -0.9300116896629333
            ],
            "type" : "VEC3"
        },
        {
            "bufferView" : 15,
            "componentType" : 5126,
            "count" : 18,
            "type" : "VEC3"
        },
        {
            "bufferView" : 16,
            "componentType" : 5126,
            "count" : 18,
            "type" : "VEC2"
        },
        {
            "bufferView" : 17,
            "componentType" : 5123,
            "count" : 30,
            "type" : "SCALAR"
        },
        {
            "bufferView" : 18,
            "componentType" : 5126,
            "count" : 7,
            "max" : [
                0.6745966672897339,
                1.0036433935165405,
                0.36300796270370483
            ],
            "min" : [
                -0.46588456630706787,
                1.0036433935165405,
                -0.9300116896629333
            ],
            "type" : "VEC3"
        },
        {
            "bufferView" : 19,
            "componentType" : 5126,
            "count" : 7,
            "type" : "VEC3"
        },
        {
            "bufferView" : 20,
            "componentType" : 5126,
            "count" : 7,
            "type" : "VEC2"
        },
        {
            "bufferView" : 21,
            "componentType" : 5123,
            "count" : 15,
            "type" : "SCALAR"
        },
        {
            "bufferView" : 22,
            "componentType" : 5126,
            "count" : 26,
            "max" : [
                0.47178786993026733,
                1.3317209482192993,
                0.7593362331390381
            ],
            "min" : [
                -1.237648367881775,
                -0.9182947874069214,
                -0.6058310270309448
            ],
            "type" : "VEC3"
        },
        {
            "bufferView" : 23,
            "componentType" : 5126,
            "count" : 26,
            "type" : "VEC3"
        },
        {
            "bufferView" : 24,
            "componentType" : 5126,
            "count" : 26,
            "type" : "VEC2"
        },
        {
            "bufferView" : 25,
            "componentType" : 5123,
            "count" : 42,
            "type" : "SCALAR"
        },
        {
            "bufferView" : 26,
            "componentType" : 5126,
            "count" : 7,
            "max" : [
                0.47178786993026733,
                1.3317209482192993,
                0.11607879400253296
            ],
            "min" : [
                -1.237648367881775,
                1.3317209482192993,
                -0.6058310270309448
            ],
            "type" : "VEC3"
        },
        {
            "bufferView" : 27,
            "componentType" : 5126,
            "count" : 7,
            "type" : "VEC3"
        },
        {
            "bufferView" : 28,
            "componentType" : 5126,
            "count" : 7,
            "type" : "VEC2"
        },
        {
            "bufferView" : 29,
            "componentType" : 5123,
            "count" : 15,
            "type" : "SCALAR"
        },
        {
            "bufferView" : 30,
            "componentType" : 5126,
            "count" : 78,
            "max" : [
                0.6214442253112793,
                1.1161084175109863,
                0.33309194445610046
            ],
            "min" : [
                -1.086855173110962,
                -1.2346162796020508,
                -0.5827012062072754
            ],
            "type" : "VEC3"
        },
        {
            "bufferView" : 31,
            "componentType" : 5126,
            "count" : 78,
            "type" : "VEC3"
        },
        {
            "bufferView" : 32,
            "componentType" : 5126,
            "count" : 78,
            "type" : "VEC2"
        },
        {
            "bufferView" : 33,
            "componentType" : 5123,
            "count" : 114,
            "type" : "SCALAR"
        },
        {
            "bufferView" : 34,
            "componentType" : 5126,
            "count" : 7,
            "max" : [
                0.5709537863731384,
                1.065828800201416,
                0.2827014625072479
            ],
            "min" : [
                -1.064042091369629,
                1.065828800201416,
                -0.5685471296310425
            ],
            "type" : "VEC3"
        },
        {
            "bufferView" : 35,
            "componentType" : 5126,
            "count" : 7,
            "type" : "VEC3"
        },
        {
            "bufferView" : 36,
            "componentType" : 5126,
            "count" : 7,
            "type" : "VEC2"
        },
        {
            "bufferView" : 37,
            "componentType" : 5123,
            "count" : 15,
            "type" : "SCALAR"
        },
        {
            "bufferView" : 38,
            "componentType" : 5126,
            "count" : 35,
            "max" : [
                1.030737280845642,
                0.7302289605140686,
                0.6531013250350952
            ],
            "min" : [
                -0.6103507280349731,
                -0.9001089930534363,
                -0.2611454427242279
            ],
            "type" : "VEC3"
        },
        {
            "bufferView" : 39,
            "componentType" : 5126,
            "count" : 35,
            "type" : "VEC3"
        },
        {
            "bufferView" : 40,
            "componentType" : 5126,
            "count" : 35,
            "type" : "VEC2"
        },
        {
            "bufferView" : 41,
            "componentType" : 5123,
            "count" : 57,
            "type" : "SCALAR"
        },
        {
            "bufferView" : 42,
            "componentType" : 5126,
            "count" : 7,
            "max" : [
                0.3785395622253418,
                0.7302289605140686,
                0.18341976404190063
            ],
            "min" : [
                -0.6103507280349731,
                0.7302289605140686,
                -0.2611454427242279
            ],
            "type" : "VEC3"
        },
        {
            "bufferView" : 43,
            "componentType" : 5126,
            "count" : 7,
            "type" : "VEC3"
        },
        {
            "bufferView" : 44,
            "componentType" : 5126,
            "count" : 7,
            "type" : "VEC2"
        },
        {
            "bufferView" : 45,
            "componentType" : 5123,
            "count" : 15,
            "type" : "SCALAR"
        }
    ],
    "bufferViews" : [
        {
            "buffer" : 0,
            "byteLength" : 2304,
            "byteOffset" : 0
        },
        {
            "buffer" : 0,
            "byteLength" : 2304,
            "byteOffset" : 2304
        },
        {
            "buffer" : 0,
            "byteLength" : 1536,
            "byteOffset" : 4608
        },
        {
            "buffer" : 0,
            "byteLength" : 720,
            "byteOffset" : 6144
        },
        {
            "buffer" : 0,
            "byteLength" : 11876,
            "byteOffset" : 6864
        },
        {
            "buffer" : 0,
            "byteLength" : 144,
            "byteOffset" : 18740
        },
        {
            "buffer" : 0,
            "byteLength" : 144,
            "byteOffset" : 18884
        },
        {
            "buffer" : 0,
            "byteLength" : 96,
            "byteOffset" : 19028
        },
        {
            "buffer" : 0,
            "byteLength" : 60,
            "byteOffset" : 19124
        },
        {
            "buffer" : 0,
            "byteLength" : 6491,
            "byteOffset" : 19184
        },
        {
            "buffer" : 0,
            "byteLength" : 1032,
            "byteOffset" : 25676
        },
        {
            "buffer" : 0,
            "byteLength" : 1032,
            "byteOffset" : 26708
        },
        {
            "buffer" : 0,
            "byteLength" : 688,
            "byteOffset" : 27740
        },
        {
            "buffer" : 0,
            "byteLength" : 288,
            "byteOffset" : 28428
        },
        {
            "buffer" : 0,
            "byteLength" : 216,
            "byteOffset" : 28716
        },
        {
            "buffer" : 0,
            "byteLength" : 216,
            "byteOffset" : 28932
        },
        {
            "buffer" : 0,
            "byteLength" : 144,
            "byteOffset" : 29148
        },
        {
            "buffer" : 0,
            "byteLength" : 60,
            "byteOffset" : 29292
        },
        {
            "buffer" : 0,
            "byteLength" : 84,
            "byteOffset" : 29352
        },
        {
            "buffer" : 0,
            "byteLength" : 84,
            "byteOffset" : 29436
        },
        {
            "buffer" : 0,
            "byteLength" : 56,
            "byteOffset" : 29520
        },
        {
            "buffer" : 0,
            "byteLength" : 30,
            "byteOffset" : 29576
        },
        {
            "buffer" : 0,
            "byteLength" : 312,
            "byteOffset" : 29608
        },
        {
            "buffer" : 0,
            "byteLength" : 312,
            "byteOffset" : 29920
        },
        {
            "buffer" : 0,
            "byteLength" : 208,
            "byteOffset" : 30232
        },
        {
            "buffer" : 0,
            "byteLength" : 84,
            "byteOffset" : 30440
        },
        {
            "buffer" : 0,
            "byteLength" : 84,
            "byteOffset" : 30524
        },
        {
            "buffer" : 0,
            "byteLength" : 84,
            "byteOffset" : 30608
        },
        {
            "buffer" : 0,
            "byteLength" : 56,
            "byteOffset" : 30692
        },
        {
            "buffer" : 0,
            "byteLength" : 30,
            "byteOffset" : 30748
        },
        {
            "buffer" : 0,
            "byteLength" : 936,
            "byteOffset" : 30780
        },
        {
            "buffer" : 0,
            "byteLength" : 936,
            "byteOffset" : 31716
        },
        {
            "buffer" : 0,
            "byteLength" : 624,
            "byteOffset" : 32652
        },
        {
            "buffer" : 0,
            "byteLength" : 228,
            "byteOffset" : 33276
        },
        {
            "buffer" : 0,
            "byteLength" : 84,
            "byteOffset" : 33504
        },
        {
            "buffer" : 0,
            "byteLength" : 84,
            "byteOffset" : 33588
        },
        {
            "buffer" : 0,
            "byteLength" : 56,
            "byteOffset" : 33672
        },
        {
            "buffer" : 0,
            "byteLength" : 30,
            "byteOffset" : 33728
        },
        {
            "buffer" : 0,
            "byteLength" : 420,
            "byteOffset" : 33760
        },
        {
            "buffer" : 0,
            "byteLength" : 420,
            "byteOffset" : 34180
        },
        {
            "buffer" : 0,
            "byteLength" : 280,
            "byteOffset" : 34600
        },
        {
            "buffer" : 0,
            "byteLength" : 114,
            "byteOffset" : 34880
        },
        {
            "buffer" : 0,
            "byteLength" : 84,
            "byteOffset" : 34996
        },
        {
            "buffer" : 0,
            "byteLength" : 84,
            "byteOffset" : 35080
        },
        {
            "buffer" : 0,
            "byteLength" : 56,
            "byteOffset" : 35164
        },
        {
            "buffer" : 0,
            "byteLength" : 30,
            "byteOffset" : 35220
        }
    ],
    "samplers" : [
        {
            "magFilter" : 9729,
            "minFilter" : 9987
        }
    ],
    "buffers" : [
        {
            "byteLength" : 35252,
            "uri" : "data:application/octet-stream;base64,"
        }
    ]
}
