{
    "asset" : {
        "generator" : "Khronos glTF Blender I/O v1.6.16",
        "version" : "2.0"
    },
    "scene" : 0,
    "scenes" : [
        {
            "name" : "Scene",
            "nodes" : [
                0,
                1,
                2,
                3,
                4,
                5,
                6
            ]
        }
    ],
    "nodes" : [
        {
            "mesh" : 0,
            "name" : "building23_1"
        },
        {
            "mesh" : 1,
            "name" : "building23_1_cell",
            "translation" : [
                -0.4091281294822693,
                2.9792022705078125,
                -0.4271920323371887
            ]
        },
        {
            "mesh" : 2,
            "name" : "building23_1_cell.001",
            "translation" : [
                -0.00021076202392578125,
                0.7862926721572876,
                -0.8160692453384399
            ]
        },
        {
            "mesh" : 3,
            "name" : "building23_1_cell.002",
            "translation" : [
                -0.7134878635406494,
                1.3805160522460938,
                0.690375566482544
            ]
        },
        {
            "mesh" : 4,
            "name" : "building23_1_cell.003",
            "translation" : [
                0.6647322773933411,
                1.1923844814300537,
                0.20677292346954346
            ]
        },
        {
            "mesh" : 5,
            "name" : "building23_1_cell.004",
            "translation" : [
                -0.03605937957763672,
                2.860733985900879,
                0.3401150107383728
            ]
        },
        {
            "mesh" : 6,
            "name" : "building23_1_cell.005",
            "translation" : [
                -0.017501354217529297,
                3.8442673683166504,
                0.018065810203552246
            ]
        }
    ],
    "materials" : [
        {
            "doubleSided" : true,
            "name" : "Material.021",
            "pbrMetallicRoughness" : {
                "baseColorTexture" : {
                    "index" : 0
                },
                "metallicFactor" : 0,
                "roughnessFactor" : 0.5
            }
        },
        {
            "doubleSided" : true,
            "name" : "Material.086",
            "pbrMetallicRoughness" : {
                "baseColorTexture" : {
                    "index" : 1
                },
                "metallicFactor" : 0,
                "roughnessFactor" : 0.5
            }
        }
    ],
    "meshes" : [
        {
            "name" : "building_026_mesh.001",
            "primitives" : [
                {
                    "attributes" : {
                        "POSITION" : 0,
                        "NORMAL" : 1,
                        "TEXCOORD_0" : 2
                    },
                    "indices" : 3,
                    "material" : 0
                },
                {
                    "attributes" : {
                        "POSITION" : 4,
                        "NORMAL" : 5,
                        "TEXCOORD_0" : 6
                    },
                    "indices" : 7,
                    "material" : 1
                }
            ]
        },
        {
            "name" : "building23_1_cell.006",
            "primitives" : [
                {
                    "attributes" : {
                        "POSITION" : 8,
                        "NORMAL" : 9,
                        "TEXCOORD_0" : 10
                    },
                    "indices" : 11,
                    "material" : 0
                },
                {
                    "attributes" : {
                        "POSITION" : 12,
                        "NORMAL" : 13,
                        "TEXCOORD_0" : 14
                    },
                    "indices" : 15,
                    "material" : 1
                }
            ]
        },
        {
            "name" : "building23_1_cell.007",
            "primitives" : [
                {
                    "attributes" : {
                        "POSITION" : 16,
                        "NORMAL" : 17,
                        "TEXCOORD_0" : 18
                    },
                    "indices" : 19,
                    "material" : 0
                }
            ]
        },
        {
            "name" : "building23_1_cell.001",
            "primitives" : [
                {
                    "attributes" : {
                        "POSITION" : 20,
                        "NORMAL" : 21,
                        "TEXCOORD_0" : 22
                    },
                    "indices" : 23,
                    "material" : 0
                }
            ]
        },
        {
            "name" : "building23_1_cell.002",
            "primitives" : [
                {
                    "attributes" : {
                        "POSITION" : 24,
                        "NORMAL" : 25,
                        "TEXCOORD_0" : 26
                    },
                    "indices" : 27,
                    "material" : 0
                }
            ]
        },
        {
            "name" : "building23_1_cell.003",
            "primitives" : [
                {
                    "attributes" : {
                        "POSITION" : 28,
                        "NORMAL" : 29,
                        "TEXCOORD_0" : 30
                    },
                    "indices" : 31,
                    "material" : 0
                }
            ]
        },
        {
            "name" : "building23_1_cell.004",
            "primitives" : [
                {
                    "attributes" : {
                        "POSITION" : 32,
                        "NORMAL" : 33,
                        "TEXCOORD_0" : 34
                    },
                    "indices" : 35,
                    "material" : 0
                },
                {
                    "attributes" : {
                        "POSITION" : 36,
                        "NORMAL" : 37,
                        "TEXCOORD_0" : 38
                    },
                    "indices" : 39,
                    "material" : 1
                }
            ]
        }
    ],
    "textures" : [
        {
            "sampler" : 0,
            "source" : 0
        },
        {
            "sampler" : 0,
            "source" : 1
        }
    ],
    "images" : [
        {
            "bufferView" : 4,
            "mimeType" : "image/jpeg",
            "name" : "images_18"
        },
        {
            "bufferView" : 9,
            "mimeType" : "image/jpeg",
            "name" : "roof3"
        }
    ],
    "accessors" : [
        {
            "bufferView" : 0,
            "componentType" : 5126,
            "count" : 94,
            "max" : [
                1.1250078678131104,
                4.500031471252441,
                1.1250078678131104
            ],
            "min" : [
                -1.1250078678131104,
                0,
                -1.1250078678131104
            ],
            "type" : "VEC3"
        },
        {
            "bufferView" : 1,
            "componentType" : 5126,
            "count" : 94,
            "type" : "VEC3"
        },
        {
            "bufferView" : 2,
            "componentType" : 5126,
            "count" : 94,
            "type" : "VEC2"
        },
        {
            "bufferView" : 3,
            "componentType" : 5123,
            "count" : 240,
            "type" : "SCALAR"
        },
        {
            "bufferView" : 5,
            "componentType" : 5126,
            "count" : 4,
            "max" : [
                1.1250078678131104,
                4.500031471252441,
                1.1250078678131104
            ],
            "min" : [
                -1.1250078678131104,
                4.500031471252441,
                -1.1250078678131104
            ],
            "type" : "VEC3"
        },
        {
            "bufferView" : 6,
            "componentType" : 5126,
            "count" : 4,
            "type" : "VEC3"
        },
        {
            "bufferView" : 7,
            "componentType" : 5126,
            "count" : 4,
            "type" : "VEC2"
        },
        {
            "bufferView" : 8,
            "componentType" : 5123,
            "count" : 6,
            "type" : "SCALAR"
        },
        {
            "bufferView" : 10,
            "componentType" : 5126,
            "count" : 38,
            "max" : [
                1.5329256057739258,
                1.520829200744629,
                1.3706254959106445
            ],
            "min" : [
                -0.7158797383308411,
                -1.4032005071640015,
                -0.6978158354759216
            ],
            "type" : "VEC3"
        },
        {
            "bufferView" : 11,
            "componentType" : 5126,
            "count" : 38,
            "type" : "VEC3"
        },
        {
            "bufferView" : 12,
            "componentType" : 5126,
            "count" : 38,
            "type" : "VEC2"
        },
        {
            "bufferView" : 13,
            "componentType" : 5123,
            "count" : 66,
            "type" : "SCALAR"
        },
        {
            "bufferView" : 14,
            "componentType" : 5126,
            "count" : 4,
            "max" : [
                -0.0429079532623291,
                1.520829200744629,
                -0.023986756801605225
            ],
            "min" : [
                -0.7158797383308411,
                1.520829200744629,
                -0.6978158354759216
            ],
            "type" : "VEC3"
        },
        {
            "bufferView" : 15,
            "componentType" : 5126,
            "count" : 4,
            "type" : "VEC3"
        },
        {
            "bufferView" : 16,
            "componentType" : 5126,
            "count" : 4,
            "type" : "VEC2"
        },
        {
            "bufferView" : 17,
            "componentType" : 5123,
            "count" : 6,
            "type" : "SCALAR"
        },
        {
            "bufferView" : 18,
            "componentType" : 5126,
            "count" : 12,
            "max" : [
                1.1252186298370361,
                0.7879287600517273,
                1.084544062614441
            ],
            "min" : [
                -1.1247971057891846,
                -0.7862926721572876,
                -0.308938592672348
            ],
            "type" : "VEC3"
        },
        {
            "bufferView" : 19,
            "componentType" : 5126,
            "count" : 12,
            "type" : "VEC3"
        },
        {
            "bufferView" : 20,
            "componentType" : 5126,
            "count" : 12,
            "type" : "VEC2"
        },
        {
            "bufferView" : 21,
            "componentType" : 5123,
            "count" : 18,
            "type" : "SCALAR"
        },
        {
            "bufferView" : 22,
            "componentType" : 5126,
            "count" : 68,
            "max" : [
                1.417041301727295,
                1.3684778213500977,
                0.4851014018058777
            ],
            "min" : [
                -0.4617541432380676,
                -1.4310100078582764,
                -1.0694841146469116
            ],
            "type" : "VEC3"
        },
        {
            "bufferView" : 23,
            "componentType" : 5126,
            "count" : 68,
            "type" : "VEC3"
        },
        {
            "bufferView" : 24,
            "componentType" : 5126,
            "count" : 68,
            "type" : "VEC2"
        },
        {
            "bufferView" : 25,
            "componentType" : 5123,
            "count" : 96,
            "type" : "SCALAR"
        },
        {
            "bufferView" : 26,
            "componentType" : 5126,
            "count" : 57,
            "max" : [
                0.5107220411300659,
                1.0570954084396362,
                0.9687261581420898
            ],
            "min" : [
                -1.3378305435180664,
                -1.2424989938735962,
                -1.3808175325393677
            ],
            "type" : "VEC3"
        },
        {
            "bufferView" : 27,
            "componentType" : 5126,
            "count" : 57,
            "type" : "VEC3"
        },
        {
            "bufferView" : 28,
            "componentType" : 5126,
            "count" : 57,
            "type" : "VEC2"
        },
        {
            "bufferView" : 29,
            "componentType" : 5123,
            "count" : 87,
            "type" : "SCALAR"
        },
        {
            "bufferView" : 30,
            "componentType" : 5126,
            "count" : 58,
            "max" : [
                1.161067247390747,
                0.5135570764541626,
                0.7848928570747375
            ],
            "min" : [
                -1.0889484882354736,
                -0.6100742816925049,
                -1.465122938156128
            ],
            "type" : "VEC3"
        },
        {
            "bufferView" : 31,
            "componentType" : 5126,
            "count" : 58,
            "type" : "VEC3"
        },
        {
            "bufferView" : 32,
            "componentType" : 5126,
            "count" : 58,
            "type" : "VEC2"
        },
        {
            "bufferView" : 33,
            "componentType" : 5123,
            "count" : 102,
            "type" : "SCALAR"
        },
        {
            "bufferView" : 34,
            "componentType" : 5126,
            "count" : 31,
            "max" : [
                1.1425092220306396,
                0.6557640433311462,
                1.106942057609558
            ],
            "min" : [
                -1.107506513595581,
                -0.46867072582244873,
                -1.1430736780166626
            ],
            "type" : "VEC3"
        },
        {
            "bufferView" : 35,
            "componentType" : 5126,
            "count" : 31,
            "type" : "VEC3"
        },
        {
            "bufferView" : 36,
            "componentType" : 5126,
            "count" : 31,
            "type" : "VEC2"
        },
        {
            "bufferView" : 37,
            "componentType" : 5123,
            "count" : 51,
            "type" : "SCALAR"
        },
        {
            "bufferView" : 38,
            "componentType" : 5126,
            "count" : 5,
            "max" : [
                1.1425092220306396,
                0.6557640433311462,
                1.106942057609558
            ],
            "min" : [
                -1.107506513595581,
                0.6557640433311462,
                -1.1430736780166626
            ],
            "type" : "VEC3"
        },
        {
            "bufferView" : 39,
            "componentType" : 5126,
            "count" : 5,
            "type" : "VEC3"
        },
        {
            "bufferView" : 40,
            "componentType" : 5126,
            "count" : 5,
            "type" : "VEC2"
        },
        {
            "bufferView" : 41,
            "componentType" : 5123,
            "count" : 9,
            "type" : "SCALAR"
        }
    ],
    "bufferViews" : [
        {
            "buffer" : 0,
            "byteLength" : 1128,
            "byteOffset" : 0
        },
        {
            "buffer" : 0,
            "byteLength" : 1128,
            "byteOffset" : 1128
        },
        {
            "buffer" : 0,
            "byteLength" : 752,
            "byteOffset" : 2256
        },
        {
            "buffer" : 0,
            "byteLength" : 480,
            "byteOffset" : 3008
        },
        {
            "buffer" : 0,
            "byteLength" : 9436,
            "byteOffset" : 3488
        },
        {
            "buffer" : 0,
            "byteLength" : 48,
            "byteOffset" : 12924
        },
        {
            "buffer" : 0,
            "byteLength" : 48,
            "byteOffset" : 12972
        },
        {
            "buffer" : 0,
            "byteLength" : 32,
            "byteOffset" : 13020
        },
        {
            "buffer" : 0,
            "byteLength" : 12,
            "byteOffset" : 13052
        },
        {
            "buffer" : 0,
            "byteLength" : 6491,
            "byteOffset" : 13064
        },
        {
            "buffer" : 0,
            "byteLength" : 456,
            "byteOffset" : 19556
        },
        {
            "buffer" : 0,
            "byteLength" : 456,
            "byteOffset" : 20012
        },
        {
            "buffer" : 0,
            "byteLength" : 304,
            "byteOffset" : 20468
        },
        {
            "buffer" : 0,
            "byteLength" : 132,
            "byteOffset" : 20772
        },
        {
            "buffer" : 0,
            "byteLength" : 48,
            "byteOffset" : 20904
        },
        {
            "buffer" : 0,
            "byteLength" : 48,
            "byteOffset" : 20952
        },
        {
            "buffer" : 0,
            "byteLength" : 32,
            "byteOffset" : 21000
        },
        {
            "buffer" : 0,
            "byteLength" : 12,
            "byteOffset" : 21032
        },
        {
            "buffer" : 0,
            "byteLength" : 144,
            "byteOffset" : 21044
        },
        {
            "buffer" : 0,
            "byteLength" : 144,
            "byteOffset" : 21188
        },
        {
            "buffer" : 0,
            "byteLength" : 96,
            "byteOffset" : 21332
        },
        {
            "buffer" : 0,
            "byteLength" : 36,
            "byteOffset" : 21428
        },
        {
            "buffer" : 0,
            "byteLength" : 816,
            "byteOffset" : 21464
        },
        {
            "buffer" : 0,
            "byteLength" : 816,
            "byteOffset" : 22280
        },
        {
            "buffer" : 0,
            "byteLength" : 544,
            "byteOffset" : 23096
        },
        {
            "buffer" : 0,
            "byteLength" : 192,
            "byteOffset" : 23640
        },
        {
            "buffer" : 0,
            "byteLength" : 684,
            "byteOffset" : 23832
        },
        {
            "buffer" : 0,
            "byteLength" : 684,
            "byteOffset" : 24516
        },
        {
            "buffer" : 0,
            "byteLength" : 456,
            "byteOffset" : 25200
        },
        {
            "buffer" : 0,
            "byteLength" : 174,
            "byteOffset" : 25656
        },
        {
            "buffer" : 0,
            "byteLength" : 696,
            "byteOffset" : 25832
        },
        {
            "buffer" : 0,
            "byteLength" : 696,
            "byteOffset" : 26528
        },
        {
            "buffer" : 0,
            "byteLength" : 464,
            "byteOffset" : 27224
        },
        {
            "buffer" : 0,
            "byteLength" : 204,
            "byteOffset" : 27688
        },
        {
            "buffer" : 0,
            "byteLength" : 372,
            "byteOffset" : 27892
        },
        {
            "buffer" : 0,
            "byteLength" : 372,
            "byteOffset" : 28264
        },
        {
            "buffer" : 0,
            "byteLength" : 248,
            "byteOffset" : 28636
        },
        {
            "buffer" : 0,
            "byteLength" : 102,
            "byteOffset" : 28884
        },
        {
            "buffer" : 0,
            "byteLength" : 60,
            "byteOffset" : 28988
        },
        {
            "buffer" : 0,
            "byteLength" : 60,
            "byteOffset" : 29048
        },
        {
            "buffer" : 0,
            "byteLength" : 40,
            "byteOffset" : 29108
        },
        {
            "buffer" : 0,
            "byteLength" : 18,
            "byteOffset" : 29148
        }
    ],
    "samplers" : [
        {
            "magFilter" : 9729,
            "minFilter" : 9987
        }
    ],
    "buffers" : [
        {
            "byteLength" : 29168,
            "uri" : "data:application/octet-stream;base64,"
        }
    ]
}
