{
    "asset" : {
        "generator" : "Khronos glTF Blender I/O v1.6.16",
        "version" : "2.0"
    },
    "scene" : 0,
    "scenes" : [
        {
            "name" : "Scene",
            "nodes" : [
                0,
                1,
                2,
                3
            ]
        }
    ],
    "nodes" : [
        {
            "mesh" : 0,
            "name" : "building22"
        },
        {
            "mesh" : 1,
            "name" : "building22_cell",
            "translation" : [
                1.1565706729888916,
                4.370107650756836,
                -0.0023419857025146484
            ]
        },
        {
            "mesh" : 2,
            "name" : "building22_cell.001",
            "translation" : [
                -0.7261018753051758,
                2.992126941680908,
                0.030756235122680664
            ]
        },
        {
            "mesh" : 3,
            "name" : "building22_cell.002",
            "translation" : [
                0.2022114396095276,
                7.843380928039551,
                0.021941661834716797
            ]
        }
    ],
    "materials" : [
        {
            "doubleSided" : true,
            "name" : "Material.015",
            "pbrMetallicRoughness" : {
                "baseColorTexture" : {
                    "index" : 0
                },
                "metallicFactor" : 0,
                "roughnessFactor" : 0.5
            }
        },
        {
            "doubleSided" : true,
            "name" : "Material.085",
            "pbrMetallicRoughness" : {
                "baseColorTexture" : {
                    "index" : 1
                },
                "metallicFactor" : 0,
                "roughnessFactor" : 0.5
            }
        }
    ],
    "meshes" : [
        {
            "name" : "building_019_mesh",
            "primitives" : [
                {
                    "attributes" : {
                        "POSITION" : 0,
                        "NORMAL" : 1,
                        "TEXCOORD_0" : 2
                    },
                    "indices" : 3,
                    "material" : 0
                },
                {
                    "attributes" : {
                        "POSITION" : 4,
                        "NORMAL" : 5,
                        "TEXCOORD_0" : 6
                    },
                    "indices" : 7,
                    "material" : 1
                }
            ]
        },
        {
            "name" : "building22_cell.017",
            "primitives" : [
                {
                    "attributes" : {
                        "POSITION" : 8,
                        "NORMAL" : 9,
                        "TEXCOORD_0" : 10
                    },
                    "indices" : 11,
                    "material" : 0
                }
            ]
        },
        {
            "name" : "building22_cell.018",
            "primitives" : [
                {
                    "attributes" : {
                        "POSITION" : 12,
                        "NORMAL" : 13,
                        "TEXCOORD_0" : 14
                    },
                    "indices" : 15,
                    "material" : 0
                },
                {
                    "attributes" : {
                        "POSITION" : 16,
                        "NORMAL" : 17,
                        "TEXCOORD_0" : 18
                    },
                    "indices" : 19,
                    "material" : 1
                }
            ]
        },
        {
            "name" : "building22_cell.013",
            "primitives" : [
                {
                    "attributes" : {
                        "POSITION" : 20,
                        "NORMAL" : 21,
                        "TEXCOORD_0" : 22
                    },
                    "indices" : 23,
                    "material" : 0
                },
                {
                    "attributes" : {
                        "POSITION" : 24,
                        "NORMAL" : 25,
                        "TEXCOORD_0" : 26
                    },
                    "indices" : 27,
                    "material" : 1
                }
            ]
        }
    ],
    "textures" : [
        {
            "sampler" : 0,
            "source" : 0
        },
        {
            "sampler" : 0,
            "source" : 1
        }
    ],
    "images" : [
        {
            "bufferView" : 4,
            "mimeType" : "image/jpeg",
            "name" : "download_4"
        },
        {
            "bufferView" : 9,
            "mimeType" : "image/jpeg",
            "name" : "roof3"
        }
    ],
    "accessors" : [
        {
            "bufferView" : 0,
            "componentType" : 5126,
            "count" : 1963,
            "max" : [
                2.313392162322998,
                8.55366039276123,
                2.3179662227630615
            ],
            "min" : [
                -2.313392162322998,
                0,
                -2.3179662227630615
            ],
            "type" : "VEC3"
        },
        {
            "bufferView" : 1,
            "componentType" : 5126,
            "count" : 1963,
            "type" : "VEC3"
        },
        {
            "bufferView" : 2,
            "componentType" : 5126,
            "count" : 1963,
            "type" : "VEC2"
        },
        {
            "bufferView" : 3,
            "componentType" : 5123,
            "count" : 2454,
            "type" : "SCALAR"
        },
        {
            "bufferView" : 5,
            "componentType" : 5126,
            "count" : 150,
            "max" : [
                2.313392162322998,
                8.55366039276123,
                2.3179662227630615
            ],
            "min" : [
                -2.313392162322998,
                7.503350734710693,
                -2.3179662227630615
            ],
            "type" : "VEC3"
        },
        {
            "bufferView" : 6,
            "componentType" : 5126,
            "count" : 150,
            "type" : "VEC3"
        },
        {
            "bufferView" : 7,
            "componentType" : 5126,
            "count" : 150,
            "type" : "VEC2"
        },
        {
            "bufferView" : 8,
            "componentType" : 5123,
            "count" : 252,
            "type" : "SCALAR"
        },
        {
            "bufferView" : 10,
            "componentType" : 5126,
            "count" : 216,
            "max" : [
                1.20712411403656,
                3.462674379348755,
                2.3705763816833496
            ],
            "min" : [
                -1.8250163793563843,
                -4.420511722564697,
                -2.3658599853515625
            ],
            "type" : "VEC3"
        },
        {
            "bufferView" : 11,
            "componentType" : 5126,
            "count" : 216,
            "type" : "VEC3"
        },
        {
            "bufferView" : 12,
            "componentType" : 5126,
            "count" : 216,
            "type" : "VEC2"
        },
        {
            "bufferView" : 13,
            "componentType" : 5123,
            "count" : 414,
            "type" : "SCALAR"
        },
        {
            "bufferView" : 14,
            "componentType" : 5126,
            "count" : 216,
            "max" : [
                2.4150867462158203,
                5.256099700927734,
                2.3376832008361816
            ],
            "min" : [
                -1.6376290321350098,
                -3.042459487915039,
                -2.3991336822509766
            ],
            "type" : "VEC3"
        },
        {
            "bufferView" : 15,
            "componentType" : 5126,
            "count" : 216,
            "type" : "VEC3"
        },
        {
            "bufferView" : 16,
            "componentType" : 5126,
            "count" : 216,
            "type" : "VEC2"
        },
        {
            "bufferView" : 17,
            "componentType" : 5123,
            "count" : 378,
            "type" : "SCALAR"
        },
        {
            "bufferView" : 18,
            "componentType" : 5126,
            "count" : 8,
            "max" : [
                -1.3390021324157715,
                4.895881652832031,
                0.5102771520614624
            ],
            "min" : [
                -1.5872902870178223,
                4.511223793029785,
                -1.076369047164917
            ],
            "type" : "VEC3"
        },
        {
            "bufferView" : 19,
            "componentType" : 5126,
            "count" : 8,
            "type" : "VEC3"
        },
        {
            "bufferView" : 20,
            "componentType" : 5126,
            "count" : 8,
            "type" : "VEC2"
        },
        {
            "bufferView" : 21,
            "componentType" : 5123,
            "count" : 18,
            "type" : "SCALAR"
        },
        {
            "bufferView" : 22,
            "componentType" : 5126,
            "count" : 230,
            "max" : [
                2.1111807823181152,
                0.7102794051170349,
                2.2960243225097656
            ],
            "min" : [
                -2.450662612915039,
                -1.3660223484039307,
                -2.3399078845977783
            ],
            "type" : "VEC3"
        },
        {
            "bufferView" : 23,
            "componentType" : 5126,
            "count" : 230,
            "type" : "VEC3"
        },
        {
            "bufferView" : 24,
            "componentType" : 5126,
            "count" : 230,
            "type" : "VEC2"
        },
        {
            "bufferView" : 25,
            "componentType" : 5123,
            "count" : 414,
            "type" : "SCALAR"
        },
        {
            "bufferView" : 26,
            "componentType" : 5126,
            "count" : 50,
            "max" : [
                2.1111807823181152,
                0.7102794051170349,
                2.2960243225097656
            ],
            "min" : [
                -2.450662612915039,
                -0.32004791498184204,
                -2.3399078845977783
            ],
            "type" : "VEC3"
        },
        {
            "bufferView" : 27,
            "componentType" : 5126,
            "count" : 50,
            "type" : "VEC3"
        },
        {
            "bufferView" : 28,
            "componentType" : 5126,
            "count" : 50,
            "type" : "VEC2"
        },
        {
            "bufferView" : 29,
            "componentType" : 5123,
            "count" : 138,
            "type" : "SCALAR"
        }
    ],
    "bufferViews" : [
        {
            "buffer" : 0,
            "byteLength" : 23556,
            "byteOffset" : 0
        },
        {
            "buffer" : 0,
            "byteLength" : 23556,
            "byteOffset" : 23556
        },
        {
            "buffer" : 0,
            "byteLength" : 15704,
            "byteOffset" : 47112
        },
        {
            "buffer" : 0,
            "byteLength" : 4908,
            "byteOffset" : 62816
        },
        {
            "buffer" : 0,
            "byteLength" : 12627,
            "byteOffset" : 67724
        },
        {
            "buffer" : 0,
            "byteLength" : 1800,
            "byteOffset" : 80352
        },
        {
            "buffer" : 0,
            "byteLength" : 1800,
            "byteOffset" : 82152
        },
        {
            "buffer" : 0,
            "byteLength" : 1200,
            "byteOffset" : 83952
        },
        {
            "buffer" : 0,
            "byteLength" : 504,
            "byteOffset" : 85152
        },
        {
            "buffer" : 0,
            "byteLength" : 6491,
            "byteOffset" : 85656
        },
        {
            "buffer" : 0,
            "byteLength" : 2592,
            "byteOffset" : 92148
        },
        {
            "buffer" : 0,
            "byteLength" : 2592,
            "byteOffset" : 94740
        },
        {
            "buffer" : 0,
            "byteLength" : 1728,
            "byteOffset" : 97332
        },
        {
            "buffer" : 0,
            "byteLength" : 828,
            "byteOffset" : 99060
        },
        {
            "buffer" : 0,
            "byteLength" : 2592,
            "byteOffset" : 99888
        },
        {
            "buffer" : 0,
            "byteLength" : 2592,
            "byteOffset" : 102480
        },
        {
            "buffer" : 0,
            "byteLength" : 1728,
            "byteOffset" : 105072
        },
        {
            "buffer" : 0,
            "byteLength" : 756,
            "byteOffset" : 106800
        },
        {
            "buffer" : 0,
            "byteLength" : 96,
            "byteOffset" : 107556
        },
        {
            "buffer" : 0,
            "byteLength" : 96,
            "byteOffset" : 107652
        },
        {
            "buffer" : 0,
            "byteLength" : 64,
            "byteOffset" : 107748
        },
        {
            "buffer" : 0,
            "byteLength" : 36,
            "byteOffset" : 107812
        },
        {
            "buffer" : 0,
            "byteLength" : 2760,
            "byteOffset" : 107848
        },
        {
            "buffer" : 0,
            "byteLength" : 2760,
            "byteOffset" : 110608
        },
        {
            "buffer" : 0,
            "byteLength" : 1840,
            "byteOffset" : 113368
        },
        {
            "buffer" : 0,
            "byteLength" : 828,
            "byteOffset" : 115208
        },
        {
            "buffer" : 0,
            "byteLength" : 600,
            "byteOffset" : 116036
        },
        {
            "buffer" : 0,
            "byteLength" : 600,
            "byteOffset" : 116636
        },
        {
            "buffer" : 0,
            "byteLength" : 400,
            "byteOffset" : 117236
        },
        {
            "buffer" : 0,
            "byteLength" : 276,
            "byteOffset" : 117636
        }
    ],
    "samplers" : [
        {
            "magFilter" : 9729,
            "minFilter" : 9987
        }
    ],
    "buffers" : [
        {
            "byteLength" : 117912,
            "uri" : "data:application/octet-stream;base64,"
        }
    ]
}
