{
    "asset" : {
        "generator" : "Khronos glTF Blender I/O v1.6.16",
        "version" : "2.0"
    },
    "scene" : 0,
    "scenes" : [
        {
            "name" : "Scene",
            "nodes" : [
                0
            ]
        }
    ],
    "nodes" : [
        {
            "mesh" : 0,
            "name" : "building22"
        }
    ],
    "materials" : [
        {
            "doubleSided" : true,
            "name" : "Material.015",
            "pbrMetallicRoughness" : {
                "baseColorTexture" : {
                    "index" : 0
                },
                "metallicFactor" : 0,
                "roughnessFactor" : 0.5
            }
        },
        {
            "doubleSided" : true,
            "name" : "Material.085",
            "pbrMetallicRoughness" : {
                "baseColorTexture" : {
                    "index" : 1
                },
                "metallicFactor" : 0,
                "roughnessFactor" : 0.5
            }
        }
    ],
    "meshes" : [
        {
            "name" : "building_019_mesh",
            "primitives" : [
                {
                    "attributes" : {
                        "POSITION" : 0,
                        "NORMAL" : 1,
                        "TEXCOORD_0" : 2
                    },
                    "indices" : 3,
                    "material" : 0
                },
                {
                    "attributes" : {
                        "POSITION" : 4,
                        "NORMAL" : 5,
                        "TEXCOORD_0" : 6
                    },
                    "indices" : 7,
                    "material" : 1
                }
            ]
        }
    ],
    "textures" : [
        {
            "sampler" : 0,
            "source" : 0
        },
        {
            "sampler" : 0,
            "source" : 1
        }
    ],
    "images" : [
        {
            "bufferView" : 4,
            "mimeType" : "image/jpeg",
            "name" : "download_4"
        },
        {
            "bufferView" : 9,
            "mimeType" : "image/jpeg",
            "name" : "roof3"
        }
    ],
    "accessors" : [
        {
            "bufferView" : 0,
            "componentType" : 5126,
            "count" : 1941,
            "max" : [
                2.313392162322998,
                8.55366039276123,
                2.3179662227630615
            ],
            "min" : [
                -2.313392162322998,
                0,
                -2.3179662227630615
            ],
            "type" : "VEC3"
        },
        {
            "bufferView" : 1,
            "componentType" : 5126,
            "count" : 1941,
            "type" : "VEC3"
        },
        {
            "bufferView" : 2,
            "componentType" : 5126,
            "count" : 1941,
            "type" : "VEC2"
        },
        {
            "bufferView" : 3,
            "componentType" : 5123,
            "count" : 2400,
            "type" : "SCALAR"
        },
        {
            "bufferView" : 5,
            "componentType" : 5126,
            "count" : 124,
            "max" : [
                2.313392162322998,
                8.55366039276123,
                2.3179662227630615
            ],
            "min" : [
                -2.313392162322998,
                8.55366039276123,
                -2.3179662227630615
            ],
            "type" : "VEC3"
        },
        {
            "bufferView" : 6,
            "componentType" : 5126,
            "count" : 124,
            "type" : "VEC3"
        },
        {
            "bufferView" : 7,
            "componentType" : 5126,
            "count" : 124,
            "type" : "VEC2"
        },
        {
            "bufferView" : 8,
            "componentType" : 5123,
            "count" : 144,
            "type" : "SCALAR"
        }
    ],
    "bufferViews" : [
        {
            "buffer" : 0,
            "byteLength" : 23292,
            "byteOffset" : 0
        },
        {
            "buffer" : 0,
            "byteLength" : 23292,
            "byteOffset" : 23292
        },
        {
            "buffer" : 0,
            "byteLength" : 15528,
            "byteOffset" : 46584
        },
        {
            "buffer" : 0,
            "byteLength" : 4800,
            "byteOffset" : 62112
        },
        {
            "buffer" : 0,
            "byteLength" : 12627,
            "byteOffset" : 66912
        },
        {
            "buffer" : 0,
            "byteLength" : 1488,
            "byteOffset" : 79540
        },
        {
            "buffer" : 0,
            "byteLength" : 1488,
            "byteOffset" : 81028
        },
        {
            "buffer" : 0,
            "byteLength" : 992,
            "byteOffset" : 82516
        },
        {
            "buffer" : 0,
            "byteLength" : 288,
            "byteOffset" : 83508
        },
        {
            "buffer" : 0,
            "byteLength" : 6491,
            "byteOffset" : 83796
        }
    ],
    "samplers" : [
        {
            "magFilter" : 9729,
            "minFilter" : 9987
        }
    ],
    "buffers" : [
        {
            "byteLength" : 90288,
            "uri" : "data:application/octet-stream;base64,"
        }
    ]
}
