{
    "asset" : {
        "generator" : "Khronos glTF Blender I/O v1.6.16",
        "version" : "2.0"
    },
    "scene" : 0,
    "scenes" : [
        {
            "name" : "Scene",
            "nodes" : [
                0,
                1,
                2,
                3
            ]
        }
    ],
    "nodes" : [
        {
            "mesh" : 0,
            "name" : "Cube_cell",
            "translation" : [
                0,
                -7.082522392272949,
                0
            ]
        },
        {
            "mesh" : 1,
            "name" : "Cube_cell.001",
            "translation" : [
                0,
                -1.3394725322723389,
                0
            ]
        },
        {
            "mesh" : 2,
            "name" : "Cube_cell.002",
            "translation" : [
                -0.07556009292602539,
                5.611699104309082,
                0.0749349594116211
            ]
        },
        {
            "mesh" : 3,
            "name" : "Cube_cell.003",
            "translation" : [
                -1.7210240364074707,
                7.629141807556152,
                1.3083322048187256
            ]
        }
    ],
    "materials" : [
        {
            "doubleSided" : true,
            "name" : "Material",
            "pbrMetallicRoughness" : {
                "baseColorFactor" : [
                    0.04217221960425377,
                    0.0017904246924445033,
                    0.44874271750450134,
                    1
                ],
                "metallicFactor" : 0,
                "roughnessFactor" : 0.4000000059604645
            }
        }
    ],
    "meshes" : [
        {
            "name" : "Cube_cell.004",
            "primitives" : [
                {
                    "attributes" : {
                        "POSITION" : 0,
                        "NORMAL" : 1,
                        "TEXCOORD_0" : 2
                    },
                    "indices" : 3,
                    "material" : 0
                }
            ]
        },
        {
            "name" : "Cube_cell.005",
            "primitives" : [
                {
                    "attributes" : {
                        "POSITION" : 4,
                        "NORMAL" : 5,
                        "TEXCOORD_0" : 6
                    },
                    "indices" : 7,
                    "material" : 0
                }
            ]
        },
        {
            "name" : "Cube_cell.001",
            "primitives" : [
                {
                    "attributes" : {
                        "POSITION" : 8,
                        "NORMAL" : 9,
                        "TEXCOORD_0" : 10
                    },
                    "indices" : 11,
                    "material" : 0
                }
            ]
        },
        {
            "name" : "Cube_cell.002",
            "primitives" : [
                {
                    "attributes" : {
                        "POSITION" : 12,
                        "NORMAL" : 13,
                        "TEXCOORD_0" : 14
                    },
                    "indices" : 15,
                    "material" : 0
                }
            ]
        }
    ],
    "accessors" : [
        {
            "bufferView" : 0,
            "componentType" : 5126,
            "count" : 168,
            "max" : [
                2.500000476837158,
                3.3494882583618164,
                2.499999523162842
            ],
            "min" : [
                -2.499999523162842,
                -2.917477607727051,
                -2.500000476837158
            ],
            "type" : "VEC3"
        },
        {
            "bufferView" : 1,
            "componentType" : 5126,
            "count" : 168,
            "type" : "VEC3"
        },
        {
            "bufferView" : 2,
            "componentType" : 5126,
            "count" : 168,
            "type" : "VEC2"
        },
        {
            "bufferView" : 3,
            "componentType" : 5123,
            "count" : 324,
            "type" : "SCALAR"
        },
        {
            "bufferView" : 4,
            "componentType" : 5126,
            "count" : 168,
            "max" : [
                2.500000476837158,
                5.099715232849121,
                2.499999523162842
            ],
            "min" : [
                -2.4999992847442627,
                -5.899264335632324,
                -2.500000476837158
            ],
            "type" : "VEC3"
        },
        {
            "bufferView" : 5,
            "componentType" : 5126,
            "count" : 168,
            "type" : "VEC3"
        },
        {
            "bufferView" : 6,
            "componentType" : 5126,
            "count" : 168,
            "type" : "VEC2"
        },
        {
            "bufferView" : 7,
            "componentType" : 5123,
            "count" : 324,
            "type" : "SCALAR"
        },
        {
            "bufferView" : 8,
            "componentType" : 5126,
            "count" : 186,
            "max" : [
                2.5755603313446045,
                4.388300895690918,
                2.425065040588379
            ],
            "min" : [
                -2.4244399070739746,
                -3.757739782333374,
                -2.574934959411621
            ],
            "type" : "VEC3"
        },
        {
            "bufferView" : 9,
            "componentType" : 5126,
            "count" : 186,
            "type" : "VEC3"
        },
        {
            "bufferView" : 10,
            "componentType" : 5126,
            "count" : 186,
            "type" : "VEC2"
        },
        {
            "bufferView" : 11,
            "componentType" : 5123,
            "count" : 360,
            "type" : "SCALAR"
        },
        {
            "bufferView" : 12,
            "componentType" : 5126,
            "count" : 66,
            "max" : [
                3.6787796020507812,
                2.3708581924438477,
                1.1916677951812744
            ],
            "min" : [
                -0.7789759635925293,
                -3.0294322967529297,
                -3.3083322048187256
            ],
            "type" : "VEC3"
        },
        {
            "bufferView" : 13,
            "componentType" : 5126,
            "count" : 66,
            "type" : "VEC3"
        },
        {
            "bufferView" : 14,
            "componentType" : 5126,
            "count" : 66,
            "type" : "VEC2"
        },
        {
            "bufferView" : 15,
            "componentType" : 5123,
            "count" : 120,
            "type" : "SCALAR"
        }
    ],
    "bufferViews" : [
        {
            "buffer" : 0,
            "byteLength" : 2016,
            "byteOffset" : 0
        },
        {
            "buffer" : 0,
            "byteLength" : 2016,
            "byteOffset" : 2016
        },
        {
            "buffer" : 0,
            "byteLength" : 1344,
            "byteOffset" : 4032
        },
        {
            "buffer" : 0,
            "byteLength" : 648,
            "byteOffset" : 5376
        },
        {
            "buffer" : 0,
            "byteLength" : 2016,
            "byteOffset" : 6024
        },
        {
            "buffer" : 0,
            "byteLength" : 2016,
            "byteOffset" : 8040
        },
        {
            "buffer" : 0,
            "byteLength" : 1344,
            "byteOffset" : 10056
        },
        {
            "buffer" : 0,
            "byteLength" : 648,
            "byteOffset" : 11400
        },
        {
            "buffer" : 0,
            "byteLength" : 2232,
            "byteOffset" : 12048
        },
        {
            "buffer" : 0,
            "byteLength" : 2232,
            "byteOffset" : 14280
        },
        {
            "buffer" : 0,
            "byteLength" : 1488,
            "byteOffset" : 16512
        },
        {
            "buffer" : 0,
            "byteLength" : 720,
            "byteOffset" : 18000
        },
        {
            "buffer" : 0,
            "byteLength" : 792,
            "byteOffset" : 18720
        },
        {
            "buffer" : 0,
            "byteLength" : 792,
            "byteOffset" : 19512
        },
        {
            "buffer" : 0,
            "byteLength" : 528,
            "byteOffset" : 20304
        },
        {
            "buffer" : 0,
            "byteLength" : 240,
            "byteOffset" : 20832
        }
    ],
    "buffers" : [
        {
            "byteLength" : 21072,
            "uri" : "data:application/octet-stream;base64,"
        }
    ]
}
