{
    "asset" : {
        "generator" : "Khronos glTF Blender I/O v1.6.16",
        "version" : "2.0"
    },
    "extensionsUsed" : [
        "KHR_materials_transmission"
    ],
    "scene" : 0,
    "scenes" : [
        {
            "name" : "Scene",
            "nodes" : [
                0,
                1,
                2,
                3,
                4
            ]
        }
    ],
    "nodes" : [
        {
            "mesh" : 0,
            "name" : "CubeOG"
        },
        {
            "mesh" : 1,
            "name" : "Cube_cell",
            "translation" : [
                0,
                -7.082522392272949,
                0
            ]
        },
        {
            "mesh" : 2,
            "name" : "Cube_cell.001",
            "translation" : [
                0,
                -1.3394725322723389,
                0
            ]
        },
        {
            "mesh" : 3,
            "name" : "Cube_cell.002",
            "translation" : [
                -0.07556009292602539,
                5.611699104309082,
                0.0749349594116211
            ]
        },
        {
            "mesh" : 4,
            "name" : "Cube_cell.003",
            "translation" : [
                -1.7210240364074707,
                7.629141807556152,
                1.3083322048187256
            ]
        }
    ],
    "materials" : [
        {
            "doubleSided" : true,
            "name" : "Material",
            "pbrMetallicRoughness" : {
                "baseColorFactor" : [
                    0.04217221960425377,
                    0.0017904246924445033,
                    0.44874271750450134,
                    1
                ],
                "metallicFactor" : 0,
                "roughnessFactor" : 0.4000000059604645
            }
        },
        {
            "doubleSided" : true,
            "extensions" : {
                "KHR_materials_transmission" : {
                    "transmissionFactor" : 0.5454545617103577
                }
            },
            "name" : "Material.002",
            "pbrMetallicRoughness" : {
                "baseColorFactor" : [
                    0,
                    0.6353495717048645,
                    0.8000000715255737,
                    1
                ],
                "metallicFactor" : 0,
                "roughnessFactor" : 0.5
            }
        }
    ],
    "meshes" : [
        {
            "name" : "Cube",
            "primitives" : [
                {
                    "attributes" : {
                        "POSITION" : 0,
                        "NORMAL" : 1,
                        "TEXCOORD_0" : 2
                    },
                    "indices" : 3,
                    "material" : 0
                },
                {
                    "attributes" : {
                        "POSITION" : 4,
                        "NORMAL" : 5,
                        "TEXCOORD_0" : 6
                    },
                    "indices" : 7,
                    "material" : 1
                }
            ]
        },
        {
            "name" : "Cube_cell.004",
            "primitives" : [
                {
                    "attributes" : {
                        "POSITION" : 8,
                        "NORMAL" : 9,
                        "TEXCOORD_0" : 10
                    },
                    "indices" : 11,
                    "material" : 0
                },
                {
                    "attributes" : {
                        "POSITION" : 12,
                        "NORMAL" : 13,
                        "TEXCOORD_0" : 14
                    },
                    "indices" : 15,
                    "material" : 1
                }
            ]
        },
        {
            "name" : "Cube_cell.005",
            "primitives" : [
                {
                    "attributes" : {
                        "POSITION" : 16,
                        "NORMAL" : 17,
                        "TEXCOORD_0" : 18
                    },
                    "indices" : 19,
                    "material" : 0
                },
                {
                    "attributes" : {
                        "POSITION" : 20,
                        "NORMAL" : 21,
                        "TEXCOORD_0" : 22
                    },
                    "indices" : 23,
                    "material" : 1
                }
            ]
        },
        {
            "name" : "Cube_cell.001",
            "primitives" : [
                {
                    "attributes" : {
                        "POSITION" : 24,
                        "NORMAL" : 25,
                        "TEXCOORD_0" : 26
                    },
                    "indices" : 27,
                    "material" : 0
                },
                {
                    "attributes" : {
                        "POSITION" : 28,
                        "NORMAL" : 29,
                        "TEXCOORD_0" : 30
                    },
                    "indices" : 31,
                    "material" : 1
                }
            ]
        },
        {
            "name" : "Cube_cell.002",
            "primitives" : [
                {
                    "attributes" : {
                        "POSITION" : 32,
                        "NORMAL" : 33,
                        "TEXCOORD_0" : 34
                    },
                    "indices" : 35,
                    "material" : 0
                },
                {
                    "attributes" : {
                        "POSITION" : 36,
                        "NORMAL" : 37,
                        "TEXCOORD_0" : 38
                    },
                    "indices" : 39,
                    "material" : 1
                }
            ]
        }
    ],
    "accessors" : [
        {
            "bufferView" : 0,
            "componentType" : 5126,
            "count" : 88,
            "max" : [
                2.5,
                10,
                2.5
            ],
            "min" : [
                -2.5,
                -10,
                -2.5
            ],
            "type" : "VEC3"
        },
        {
            "bufferView" : 1,
            "componentType" : 5126,
            "count" : 88,
            "type" : "VEC3"
        },
        {
            "bufferView" : 2,
            "componentType" : 5126,
            "count" : 88,
            "type" : "VEC2"
        },
        {
            "bufferView" : 3,
            "componentType" : 5123,
            "count" : 204,
            "type" : "SCALAR"
        },
        {
            "bufferView" : 4,
            "componentType" : 5126,
            "count" : 80,
            "max" : [
                2.5,
                7.708699703216553,
                2.5
            ],
            "min" : [
                -2.5,
                -7.708699703216553,
                -2.5
            ],
            "type" : "VEC3"
        },
        {
            "bufferView" : 5,
            "componentType" : 5126,
            "count" : 80,
            "type" : "VEC3"
        },
        {
            "bufferView" : 6,
            "componentType" : 5126,
            "count" : 80,
            "type" : "VEC2"
        },
        {
            "bufferView" : 7,
            "componentType" : 5123,
            "count" : 120,
            "type" : "SCALAR"
        },
        {
            "bufferView" : 8,
            "componentType" : 5126,
            "count" : 104,
            "max" : [
                2.500000476837158,
                3.3494882583618164,
                2.499999523162842
            ],
            "min" : [
                -2.499999523162842,
                -2.917477607727051,
                -2.500000476837158
            ],
            "type" : "VEC3"
        },
        {
            "bufferView" : 9,
            "componentType" : 5126,
            "count" : 104,
            "type" : "VEC3"
        },
        {
            "bufferView" : 10,
            "componentType" : 5126,
            "count" : 104,
            "type" : "VEC2"
        },
        {
            "bufferView" : 11,
            "componentType" : 5123,
            "count" : 228,
            "type" : "SCALAR"
        },
        {
            "bufferView" : 12,
            "componentType" : 5126,
            "count" : 64,
            "max" : [
                2.500000476837158,
                3.316053867340088,
                2.499999523162842
            ],
            "min" : [
                -2.499999523162842,
                -0.626177191734314,
                -2.500000476837158
            ],
            "type" : "VEC3"
        },
        {
            "bufferView" : 13,
            "componentType" : 5126,
            "count" : 64,
            "type" : "VEC3"
        },
        {
            "bufferView" : 14,
            "componentType" : 5126,
            "count" : 64,
            "type" : "VEC2"
        },
        {
            "bufferView" : 15,
            "componentType" : 5123,
            "count" : 96,
            "type" : "SCALAR"
        },
        {
            "bufferView" : 16,
            "componentType" : 5126,
            "count" : 120,
            "max" : [
                2.500000476837158,
                5.099715232849121,
                2.499999523162842
            ],
            "min" : [
                -2.4999992847442627,
                -5.899264335632324,
                -2.500000476837158
            ],
            "type" : "VEC3"
        },
        {
            "bufferView" : 17,
            "componentType" : 5126,
            "count" : 120,
            "type" : "VEC3"
        },
        {
            "bufferView" : 18,
            "componentType" : 5126,
            "count" : 120,
            "type" : "VEC2"
        },
        {
            "bufferView" : 19,
            "componentType" : 5123,
            "count" : 252,
            "type" : "SCALAR"
        },
        {
            "bufferView" : 20,
            "componentType" : 5126,
            "count" : 48,
            "max" : [
                2.500000476837158,
                5.095590591430664,
                2.499999523162842
            ],
            "min" : [
                -2.4999992847442627,
                -5.865860462188721,
                -2.500000476837158
            ],
            "type" : "VEC3"
        },
        {
            "bufferView" : 21,
            "componentType" : 5126,
            "count" : 48,
            "type" : "VEC3"
        },
        {
            "bufferView" : 22,
            "componentType" : 5126,
            "count" : 48,
            "type" : "VEC2"
        },
        {
            "bufferView" : 23,
            "componentType" : 5123,
            "count" : 72,
            "type" : "SCALAR"
        },
        {
            "bufferView" : 24,
            "componentType" : 5126,
            "count" : 120,
            "max" : [
                2.5755603313446045,
                4.388300895690918,
                2.425065040588379
            ],
            "min" : [
                -2.4244399070739746,
                -3.757739782333374,
                -2.574934959411621
            ],
            "type" : "VEC3"
        },
        {
            "bufferView" : 25,
            "componentType" : 5126,
            "count" : 120,
            "type" : "VEC3"
        },
        {
            "bufferView" : 26,
            "componentType" : 5126,
            "count" : 120,
            "type" : "VEC2"
        },
        {
            "bufferView" : 27,
            "componentType" : 5123,
            "count" : 258,
            "type" : "SCALAR"
        },
        {
            "bufferView" : 28,
            "componentType" : 5126,
            "count" : 66,
            "max" : [
                2.5755603313446045,
                2.09700083732605,
                2.425065040588379
            ],
            "min" : [
                -2.4244399070739746,
                -3.7536442279815674,
                -2.574934959411621
            ],
            "type" : "VEC3"
        },
        {
            "bufferView" : 29,
            "componentType" : 5126,
            "count" : 66,
            "type" : "VEC3"
        },
        {
            "bufferView" : 30,
            "componentType" : 5126,
            "count" : 66,
            "type" : "VEC2"
        },
        {
            "bufferView" : 31,
            "componentType" : 5123,
            "count" : 102,
            "type" : "SCALAR"
        },
        {
            "bufferView" : 32,
            "componentType" : 5126,
            "count" : 44,
            "max" : [
                3.6787796020507812,
                2.3708581924438477,
                1.1916677951812744
            ],
            "min" : [
                -0.7789759635925293,
                -3.0294322967529297,
                -3.3083322048187256
            ],
            "type" : "VEC3"
        },
        {
            "bufferView" : 33,
            "componentType" : 5126,
            "count" : 44,
            "type" : "VEC3"
        },
        {
            "bufferView" : 34,
            "componentType" : 5126,
            "count" : 44,
            "type" : "VEC2"
        },
        {
            "bufferView" : 35,
            "componentType" : 5123,
            "count" : 90,
            "type" : "SCALAR"
        },
        {
            "bufferView" : 36,
            "componentType" : 5126,
            "count" : 22,
            "max" : [
                1.984147548675537,
                0.07955789566040039,
                1.1916677951812744
            ],
            "min" : [
                -0.7789759635925293,
                -2.443509101867676,
                -1.7517625093460083
            ],
            "type" : "VEC3"
        },
        {
            "bufferView" : 37,
            "componentType" : 5126,
            "count" : 22,
            "type" : "VEC3"
        },
        {
            "bufferView" : 38,
            "componentType" : 5126,
            "count" : 22,
            "type" : "VEC2"
        },
        {
            "bufferView" : 39,
            "componentType" : 5123,
            "count" : 30,
            "type" : "SCALAR"
        }
    ],
    "bufferViews" : [
        {
            "buffer" : 0,
            "byteLength" : 1056,
            "byteOffset" : 0
        },
        {
            "buffer" : 0,
            "byteLength" : 1056,
            "byteOffset" : 1056
        },
        {
            "buffer" : 0,
            "byteLength" : 704,
            "byteOffset" : 2112
        },
        {
            "buffer" : 0,
            "byteLength" : 408,
            "byteOffset" : 2816
        },
        {
            "buffer" : 0,
            "byteLength" : 960,
            "byteOffset" : 3224
        },
        {
            "buffer" : 0,
            "byteLength" : 960,
            "byteOffset" : 4184
        },
        {
            "buffer" : 0,
            "byteLength" : 640,
            "byteOffset" : 5144
        },
        {
            "buffer" : 0,
            "byteLength" : 240,
            "byteOffset" : 5784
        },
        {
            "buffer" : 0,
            "byteLength" : 1248,
            "byteOffset" : 6024
        },
        {
            "buffer" : 0,
            "byteLength" : 1248,
            "byteOffset" : 7272
        },
        {
            "buffer" : 0,
            "byteLength" : 832,
            "byteOffset" : 8520
        },
        {
            "buffer" : 0,
            "byteLength" : 456,
            "byteOffset" : 9352
        },
        {
            "buffer" : 0,
            "byteLength" : 768,
            "byteOffset" : 9808
        },
        {
            "buffer" : 0,
            "byteLength" : 768,
            "byteOffset" : 10576
        },
        {
            "buffer" : 0,
            "byteLength" : 512,
            "byteOffset" : 11344
        },
        {
            "buffer" : 0,
            "byteLength" : 192,
            "byteOffset" : 11856
        },
        {
            "buffer" : 0,
            "byteLength" : 1440,
            "byteOffset" : 12048
        },
        {
            "buffer" : 0,
            "byteLength" : 1440,
            "byteOffset" : 13488
        },
        {
            "buffer" : 0,
            "byteLength" : 960,
            "byteOffset" : 14928
        },
        {
            "buffer" : 0,
            "byteLength" : 504,
            "byteOffset" : 15888
        },
        {
            "buffer" : 0,
            "byteLength" : 576,
            "byteOffset" : 16392
        },
        {
            "buffer" : 0,
            "byteLength" : 576,
            "byteOffset" : 16968
        },
        {
            "buffer" : 0,
            "byteLength" : 384,
            "byteOffset" : 17544
        },
        {
            "buffer" : 0,
            "byteLength" : 144,
            "byteOffset" : 17928
        },
        {
            "buffer" : 0,
            "byteLength" : 1440,
            "byteOffset" : 18072
        },
        {
            "buffer" : 0,
            "byteLength" : 1440,
            "byteOffset" : 19512
        },
        {
            "buffer" : 0,
            "byteLength" : 960,
            "byteOffset" : 20952
        },
        {
            "buffer" : 0,
            "byteLength" : 516,
            "byteOffset" : 21912
        },
        {
            "buffer" : 0,
            "byteLength" : 792,
            "byteOffset" : 22428
        },
        {
            "buffer" : 0,
            "byteLength" : 792,
            "byteOffset" : 23220
        },
        {
            "buffer" : 0,
            "byteLength" : 528,
            "byteOffset" : 24012
        },
        {
            "buffer" : 0,
            "byteLength" : 204,
            "byteOffset" : 24540
        },
        {
            "buffer" : 0,
            "byteLength" : 528,
            "byteOffset" : 24744
        },
        {
            "buffer" : 0,
            "byteLength" : 528,
            "byteOffset" : 25272
        },
        {
            "buffer" : 0,
            "byteLength" : 352,
            "byteOffset" : 25800
        },
        {
            "buffer" : 0,
            "byteLength" : 180,
            "byteOffset" : 26152
        },
        {
            "buffer" : 0,
            "byteLength" : 264,
            "byteOffset" : 26332
        },
        {
            "buffer" : 0,
            "byteLength" : 264,
            "byteOffset" : 26596
        },
        {
            "buffer" : 0,
            "byteLength" : 176,
            "byteOffset" : 26860
        },
        {
            "buffer" : 0,
            "byteLength" : 60,
            "byteOffset" : 27036
        }
    ],
    "buffers" : [
        {
            "byteLength" : 27096,
            "uri" : "data:application/octet-stream;base64,"
        }
    ]
}
